<svg width="1714" height="914" viewBox="0 0 1714 914" fill="none" xmlns="http://www.w3.org/2000/svg">
<g filter="url(#filter0_d)">
<rect x="4" width="1706" height="906" fill="white"/>
<path d="M328.404 209.347C295.124 212.887 261.509 229.717 228.565 259.4L226.119 261.633L220.653 260.271C189.819 252.428 156.395 250.849 128.678 255.914C107.195 259.835 89.6444 267.297 75.6901 278.353C70.4152 282.602 62.7427 291.152 59.1462 296.817C56.317 301.337 51.4737 311.631 51.4737 313.21C51.4737 313.646 51.186 313.81 50.8982 313.646C47.2058 311.903 43.4175 311.032 40.8281 311.304C30.9018 312.339 23.0854 323.668 19.5368 342.185C18.1942 349.32 18.2901 366.313 19.7287 372.794C22.6538 386.138 27.9766 395.669 35.0737 400.244C36.3205 401.061 37.4234 401.824 37.5193 401.933C37.6152 401.987 37.0877 402.641 36.3205 403.294C28.6 410.048 18.8175 423.827 14.5497 433.958C10.5216 443.652 8.79532 454.491 10.186 462.061C12.5357 474.861 21.407 482.431 34.9298 483.085C37.855 483.248 41.7392 483.139 43.6573 482.867L47.1099 482.377L51.5696 489.185C56.7485 497.082 67.7298 509.99 74.4912 516.036C91.7064 531.503 111.032 541.47 132.035 545.719C138.221 546.971 140.331 547.135 150.977 547.189C157.594 547.244 164.739 547.08 166.897 546.808L170.781 546.427L172.46 549.803C176.823 558.845 180.036 566.034 179.653 566.034C179.221 566.034 175.529 563.583 172.699 561.459L171.453 560.533L167.904 565.326C163.444 571.371 156.635 582.046 152.655 589.181C142.968 606.446 135.775 622.677 121.15 660.257C109.593 689.886 101.777 707.26 93.6246 721.148C91.7064 724.362 89.4526 728.011 88.5895 729.263C87.3906 730.897 86.048 734.492 83.4105 743.152C64.469 805.241 39.2456 856.22 7.6924 896.087C4.19181 900.499 4 900.826 4 903.331V906L15.1251 905.673C21.2632 905.51 36.2246 905.237 48.3567 905.074C60.4889 904.911 86.1918 904.529 105.421 904.257C124.698 903.985 157.163 903.495 177.591 903.168C198.019 902.841 231.011 902.351 250.863 902.079L286.972 901.479L288.89 903.386C289.945 904.421 291.527 905.401 292.391 905.564C294.069 905.946 312.339 905.129 322.122 904.257C329.411 903.604 334.302 903.004 343.029 901.534C349.743 900.445 356.6 900.281 457.637 899.083C470.153 898.92 483.916 898.647 488.232 898.484L496 898.157V896.087C496 893.8 493.938 886.611 491.396 880.238C487.273 869.781 480.463 857.581 472.071 845.708C466.173 837.321 463.727 834.216 449.389 816.461C436.058 799.958 432.51 795.329 426.276 786.614C413.473 768.587 405.8 751.648 403.642 736.616C402.539 728.828 401.82 726.377 398.271 718.37C390.982 702.14 382.878 689.178 361.251 659.168C339.049 628.341 331.568 616.631 322.17 598.004C318.189 590.107 312.963 576.872 310.853 569.302C309.366 564.128 308.982 563.256 306.585 560.478L303.899 557.32H294.213H284.526L286.444 552.908C288.267 548.823 288.506 548.551 289.705 548.823C293.685 549.749 302.892 550.838 311.044 551.383C339.96 553.344 367.389 546.699 384.557 533.464C390.311 529.053 393.716 525.458 397.264 520.12C403.258 511.188 405.944 501.984 405.992 490.546L406.04 484.011L411.794 480.743C437.545 466.364 451.499 451.822 453.801 437.008C455.288 427.586 450.876 417.183 441.957 409.013C438.216 405.636 431.407 400.462 430.592 400.462C430.304 400.462 432.03 399.264 434.476 397.794C450.301 388.208 460.467 374.156 463.2 358.089C467.324 333.417 452.267 310.869 426.276 302.971C421.625 301.555 412.178 299.703 409.636 299.703C408.629 299.703 407.766 299.54 407.766 299.268C407.766 299.05 408.485 296.708 409.396 294.094C412.657 284.78 413.281 280.859 413.281 270.565C413.281 262.559 413.137 260.707 412.178 257.003C405.896 232.222 385.851 215.393 356.216 210.11C350.414 209.075 334.973 208.639 328.404 209.347Z" fill="url(#paint0_linear)"/>
<path d="M1385.6 209.347C1418.88 212.887 1452.49 229.717 1485.44 259.4L1487.88 261.633L1493.35 260.271C1524.18 252.428 1557.6 250.849 1585.32 255.914C1606.8 259.835 1624.36 267.297 1638.31 278.353C1643.58 282.602 1651.26 291.152 1654.85 296.817C1657.68 301.337 1662.53 311.631 1662.53 313.21C1662.53 313.646 1662.81 313.81 1663.1 313.646C1666.79 311.903 1670.58 311.032 1673.17 311.304C1683.1 312.339 1690.91 323.668 1694.46 342.185C1695.81 349.32 1695.71 366.313 1694.27 372.794C1691.35 386.138 1686.02 395.669 1678.93 400.244C1677.68 401.061 1676.58 401.824 1676.48 401.933C1676.38 401.987 1676.91 402.641 1677.68 403.294C1685.4 410.048 1695.18 423.827 1699.45 433.958C1703.48 443.652 1705.2 454.491 1703.81 462.061C1701.46 474.861 1692.59 482.431 1679.07 483.085C1676.15 483.248 1672.26 483.139 1670.34 482.867L1666.89 482.377L1662.43 489.185C1657.25 497.082 1646.27 509.99 1639.51 516.036C1622.29 531.503 1602.97 541.47 1581.96 545.719C1575.78 546.971 1573.67 547.135 1563.02 547.189C1556.41 547.244 1549.26 547.08 1547.1 546.808L1543.22 546.427L1541.54 549.803C1537.18 558.845 1533.96 566.034 1534.35 566.034C1534.78 566.034 1538.47 563.583 1541.3 561.459L1542.55 560.533L1546.1 565.326C1550.56 571.371 1557.36 582.046 1561.35 589.181C1571.03 606.446 1578.22 622.677 1592.85 660.257C1604.41 689.886 1612.22 707.26 1620.38 721.148C1622.29 724.362 1624.55 728.011 1625.41 729.263C1626.61 730.897 1627.95 734.492 1630.59 743.152C1649.53 805.241 1674.75 856.22 1706.31 896.087C1709.81 900.499 1710 900.826 1710 903.331V906L1698.87 905.673C1692.74 905.51 1677.78 905.237 1665.64 905.074C1653.51 904.911 1627.81 904.529 1608.58 904.257C1589.3 903.985 1556.84 903.495 1536.41 903.168C1515.98 902.841 1482.99 902.351 1463.14 902.079L1427.03 901.479L1425.11 903.386C1424.05 904.421 1422.47 905.401 1421.61 905.564C1419.93 905.946 1401.66 905.129 1391.88 904.257C1384.59 903.604 1379.7 903.004 1370.97 901.534C1364.26 900.445 1357.4 900.281 1256.36 899.083C1243.85 898.92 1230.08 898.647 1225.77 898.484L1218 898.157V896.087C1218 893.8 1220.06 886.611 1222.6 880.238C1226.73 869.781 1233.54 857.581 1241.93 845.708C1247.83 837.321 1250.27 834.216 1264.61 816.461C1277.94 799.958 1281.49 795.329 1287.72 786.614C1300.53 768.587 1308.2 751.648 1310.36 736.616C1311.46 728.828 1312.18 726.377 1315.73 718.37C1323.02 702.14 1331.12 689.178 1352.75 659.168C1374.95 628.341 1382.43 616.631 1391.83 598.004C1395.81 590.107 1401.04 576.872 1403.15 569.302C1404.63 564.128 1405.02 563.256 1407.42 560.478L1410.1 557.32H1419.79H1429.47L1427.56 552.908C1425.73 548.823 1425.49 548.551 1424.29 548.823C1420.31 549.749 1411.11 550.838 1402.96 551.383C1374.04 553.344 1346.61 546.699 1329.44 533.464C1323.69 529.053 1320.28 525.458 1316.74 520.12C1310.74 511.188 1308.06 501.984 1308.01 490.546L1307.96 484.011L1302.21 480.743C1276.45 466.364 1262.5 451.822 1260.2 437.008C1258.71 427.586 1263.12 417.183 1272.04 409.013C1275.78 405.636 1282.59 400.462 1283.41 400.462C1283.7 400.462 1281.97 399.264 1279.52 397.794C1263.7 388.208 1253.53 374.156 1250.8 358.089C1246.68 333.417 1261.73 310.869 1287.72 302.971C1292.38 301.555 1301.82 299.703 1304.36 299.703C1305.37 299.703 1306.23 299.54 1306.23 299.268C1306.23 299.05 1305.51 296.708 1304.6 294.094C1301.34 284.78 1300.72 280.859 1300.72 270.565C1300.72 262.559 1300.86 260.707 1301.82 257.003C1308.1 232.222 1328.15 215.393 1357.78 210.11C1363.59 209.075 1379.03 208.639 1385.6 209.347Z" fill="url(#paint1_linear)"/>
</g>
<defs>
<filter id="filter0_d" x="0" y="0" width="1714" height="914" filterUnits="userSpaceOnUse" color-interpolation-filters="sRGB">
<feFlood flood-opacity="0" result="BackgroundImageFix"/>
<feColorMatrix in="SourceAlpha" type="matrix" values="0 0 0 0 0 0 0 0 0 0 0 0 0 0 0 0 0 0 127 0"/>
<feOffset dy="4"/>
<feGaussianBlur stdDeviation="2"/>
<feColorMatrix type="matrix" values="0 0 0 0 0 0 0 0 0 0 0 0 0 0 0 0 0 0 0.25 0"/>
<feBlend mode="normal" in2="BackgroundImageFix" result="effect1_dropShadow"/>
<feBlend mode="normal" in="SourceGraphic" in2="effect1_dropShadow" result="shape"/>
</filter>
<linearGradient id="paint0_linear" x1="250" y1="591.884" x2="250" y2="534.152" gradientUnits="userSpaceOnUse">
<stop offset="0.192708" stop-color="#602D18"/>
<stop offset="0.4375" stop-color="#431919"/>
<stop offset="0.677083" stop-color="#353256" stop-opacity="0.519271"/>
<stop offset="1" stop-color="#2E3D73" stop-opacity="0.29"/>
</linearGradient>
<linearGradient id="paint1_linear" x1="1464" y1="591.884" x2="1464" y2="534.152" gradientUnits="userSpaceOnUse">
<stop offset="0.192708" stop-color="#602D18"/>
<stop offset="0.4375" stop-color="#431919"/>
<stop offset="0.677083" stop-color="#353256" stop-opacity="0.519271"/>
<stop offset="1" stop-color="#2E3D73" stop-opacity="0.29"/>
</linearGradient>
</defs>
</svg>
