<svg width="938" height="1279" viewBox="0 0 938 1279" fill="none" xmlns="http://www.w3.org/2000/svg">
<path d="M613 6.09988C529.8 59.0999 464.8 147 435.9 245.8C425.8 280.5 420.3 311.7 417.9 348.9L416.7 366.7L410.6 359.1C397.6 342.9 378.5 325.6 361.3 314.7C349.5 307.1 323 294.6 323 296.5C323 296.8 324.1 298.8 325.4 300.9C333.8 314.1 343.3 337.2 348 355.4C352.9 374.4 353.5 380 353.5 403.5C353.4 422.4 353.1 426.9 351.2 435.7C344.8 465.4 329.6 495.7 307.4 523.5C287.8 548 271.4 564 226 603.4C180.9 642.6 174.8 648 156.8 664.7C93.5 723.5 49.4 785.4 24.7 850C-13.4 949.7 -6.9 1062.1 42.3 1152.9C50.3 1167.9 65.5 1190.6 76.6 1204.5C87.9 1218.6 109.4 1240.1 123.5 1251.4C136.4 1261.7 164 1280.2 164 1278.5C164 1278.3 162.7 1274.8 161.1 1270.8C151 1245.1 142.4 1211.1 138.4 1180.8C136.2 1164 135.4 1125.8 136.9 1109C141.9 1053.2 160.5 999.8 191.4 953C206.9 929.6 225.2 907.9 263.6 867.5C316 812.3 337.9 787.7 361.8 756.7C366.4 750.8 370.3 746 370.4 746C370.6 746 371.5 751.1 372.5 757.2C379 799.9 397.8 846.4 425 887.4C450.8 926.3 477.1 953.8 546 1014.1C593.1 1055.3 613.7 1080.7 624.3 1110.6C635.6 1142.4 631.9 1182.4 614.3 1217.3L609.9 1226.2L613.2 1225.5C621.4 1223.8 638.3 1217.4 648.1 1212.4C685 1193.2 715.4 1156.6 729.1 1114.7C737.4 1089.6 740.6 1065.6 739.7 1034.5C739.1 1012.3 737.3 999.2 731.5 977.5C719.3 930.9 699 889.5 664.1 839.5C656.8 829.1 712.9 887.3 736 914C757.7 939.2 779.8 971.6 793.6 998.5C825.5 1060.6 832.4 1116.6 815.9 1179C807.8 1209.7 790.4 1244.7 770.2 1271.3C767.3 1275 765 1278.3 765 1278.5C765 1279.2 777.6 1273.7 788.3 1268.4C861.2 1231.8 914.4 1160.1 931.5 1075.5C936.2 1052.3 937.4 1039.3 937.4 1010.5C937.4 982.6 936.3 968.8 931.9 943C920.2 874.4 885.5 795.9 834.7 723.1C807.8 684.5 781.3 651.1 725 585C681.3 533.7 665.6 514.2 646.7 487.8C602.5 426 576.2 359.6 565.9 283.8C562.9 261.6 562.2 214.9 564.4 191C568.7 146.3 579.1 102.8 595.7 60.4999C598.7 52.7999 606.3 35.9999 612.5 23.1999C618.8 10.4999 623.6 -0.000116709 623.2 -0.000116709C622.8 0.0998833 618.2 2.79988 613 6.09988Z" fill="url(#paint0_linear)"/>
<defs>
<linearGradient id="paint0_linear" x1="468.77" y1="1278.61" x2="468.77" y2="-0.00012207" gradientUnits="userSpaceOnUse">
<stop stop-color="#FF1212"/>
<stop offset="0.9999" stop-color="#D9D11A" stop-opacity="0.92"/>
<stop offset="1" stop-color="#A37126" stop-opacity="0.92"/>
</linearGradient>
</defs>
</svg>
