<svg width="1280" height="720" viewBox="0 0 1280 720" fill="none" xmlns="http://www.w3.org/2000/svg">
<g clip-path="url(#clip0)">
<rect width="1280" height="720" fill="white"/>
<path d="M-6.36165 219.572C25.1809 224.921 45.1569 233.482 65.6868 250.484L69.738 253.829L68.5634 248.794C67.9097 246.023 67.503 243.873 67.64 244.01C67.7769 244.147 68.8831 245.917 70.0868 247.91C75.1839 256.328 80.943 264.494 85.3366 269.552C90.9526 276.081 91.156 276.243 99.4805 280.749C108.052 285.418 113.49 287.743 130.56 294.187C142.162 298.566 147.043 300.624 152.954 303.754C162.053 308.535 168.248 313.07 175.439 320.261C177.745 322.567 179.635 324.375 179.631 324.288C179.602 324.134 174.14 317.177 169.495 311.412C165.222 306.142 161.503 302.008 156.026 296.573C149.634 290.18 146.236 287.323 140.668 283.622C139.007 282.543 137.364 281.356 137.021 281.014C135.971 279.963 129.847 271.888 127.277 268.156C119.663 257.097 115.346 246.802 114.244 236.9C113.68 231.894 113.95 219.753 114.612 220.415C114.749 220.552 116.038 222.505 117.472 224.769C134.903 252.038 150.251 267.967 163.446 272.487C168.288 274.174 172.628 274.446 177.186 273.358C179.056 272.904 179.143 272.908 184.736 274.848C195.811 278.658 201.62 281.022 208.417 284.498C215.081 287.925 222.455 292.559 227.94 296.799C229.069 297.679 230.761 298.955 231.686 299.673C232.612 300.392 234.853 302.259 236.646 303.845C238.645 305.636 240.743 307.236 242.063 308.016C245.508 310.05 249.937 313.109 253.91 316.169C258.04 319.344 266.337 327.392 269.936 331.738C274.043 336.717 278.862 343.861 280.537 347.528C281.023 348.595 281.479 349.508 281.57 349.599C281.799 349.827 283.177 344.066 283.727 340.548C284.03 338.693 284.244 335.876 284.236 334.332C284.248 332.767 284.323 331.597 284.437 331.711C284.917 332.19 288.592 339.518 291.52 345.768C304.041 372.651 310.461 396.547 311.104 418.734C311.981 448.585 302.317 474.869 280.91 500.659C279.265 502.624 277.986 504.542 277.031 506.41C272.432 515.301 267.056 522.96 259.925 530.731C243.101 549.107 221.252 559.678 198.098 560.642C193.779 560.806 185.382 560.254 181.588 559.573C167.637 556.996 154.969 551.218 143.629 542.286C134.864 535.389 126.297 525.784 119.814 515.648L118.122 513.002L119.648 513.531C123.431 514.907 132.619 517.453 136.019 518.072C140.406 518.889 145.962 519.132 149.2 518.634C151.921 518.241 157.3 516.606 159.338 515.572L160.76 514.835L159.542 513.908C156.136 511.332 146.782 501.19 143.31 496.306C136.391 486.606 127.419 477.177 118.891 470.683C105.648 460.595 91.5165 454.682 74.7677 452.254C70.6957 451.669 63.3403 451.08 64.6187 451.445C65.0151 451.551 64.6685 451.578 63.8612 451.518C56.0907 450.887 51.0412 450.777 44.9435 451.031C42.3409 451.168 40.2737 451.135 40.3505 450.921C40.4501 450.73 40.2426 450.481 39.6407 450.17C37.7023 449.186 37.5737 446.484 39.3317 443.675C40.7451 441.395 42.5259 439.979 47.8495 436.71C52.098 434.151 60.5514 429.944 61.998 429.73C62.4069 429.641 62.409 429.684 61.9627 429.902C59.3248 431.125 58.0505 431.76 58.0795 431.913C58.0982 432.306 60.4039 435.981 60.6675 436.037C61.0867 436.166 60.8771 436.33 59.1607 437.27C58.3554 437.71 57.5543 438.237 57.3882 438.403C57.2222 438.569 58.1582 438.136 59.5156 437.417C66.8296 433.482 76.0966 429.923 82.3001 428.696C83.4209 428.488 84.3673 428.272 84.388 428.252C84.4088 428.231 83.4479 427.685 82.2649 427.042C77.6699 424.605 69.5509 419.392 65.1074 416.028C49.8117 404.385 40.0989 390.355 36.1311 374.142C35.1018 369.875 34.5311 366.564 34.8362 366.579C34.967 366.585 37.9763 368.142 41.5461 370.051C55.8021 377.665 68.9313 383.074 81.5977 386.525C85.8274 387.683 90.9268 388.839 91.0928 388.673C91.1551 388.61 90.7442 387.286 90.1693 385.715C88.8743 382.262 87.1519 375.765 86.079 370.583L85.3319 366.764L81.5443 364.388C67.2219 355.379 58.7189 348.951 51.0483 341.281C44.4962 334.729 41.4413 330.844 36.9979 323.37C36.0537 321.803 34.4473 319.574 33.4138 318.416C28.8645 313.286 27.5426 308.809 26.3392 294.032C25.6442 285.823 24.9345 280.963 23.5856 275.463C19.2235 257.817 9.54193 241.702 -8.12586 222.706L-11.9072 218.634L-6.36165 219.572ZM56.2986 439.265C56.4293 439.271 56.639 439.107 56.7158 438.893C56.8133 438.659 56.6826 438.652 56.4543 438.881C56.2031 439.086 56.1471 439.279 56.2986 439.265Z" fill="url(#paint0_linear)"/>
<path d="M44.5285 215.253C48.1875 215.841 51.7075 216.247 58.6747 216.905C74.5498 218.335 81.2742 220.285 89.2978 225.777C99.7288 232.97 110.265 247.409 120.843 269.111L122.145 271.782L118.293 271.251C108.376 269.844 101.38 267.663 95.6725 264.239C92.9869 262.632 88.7116 258.689 86.5325 255.846C83.3343 251.693 78.4717 244.091 78.4053 243.153C78.3618 242.694 78.0256 241.569 77.679 240.683C77.1124 239.286 76.6725 238.722 74.3688 236.459C71.4259 233.558 71.291 233.465 59.405 226.311C49.7793 220.504 41.3697 215.125 41.598 214.896C41.6602 214.834 42.9948 215.006 44.5285 215.253Z" fill="url(#paint1_linear)"/>
<path d="M-6.08417 320.428C-5.40552 320.982 -3.3052 322.626 -1.36677 324.066C0.550905 325.527 3.71383 328.026 5.65848 329.597C15.3174 337.471 17.5257 338.642 21.5645 338.073C22.5151 337.944 24.8769 338.231 27.7556 338.868C34.4987 340.298 37.0494 341.354 40.9283 344.278C44.334 346.854 48.2316 351.996 52.1561 359.076L53.5134 361.554L51.5749 361.483C42.5799 361.164 30.1916 358.987 23.3323 356.486C17.1143 354.212 13.7085 352.093 9.48719 347.913C5.69752 344.123 4.41494 342.301 0.729133 335.212C-0.756812 332.314 -3.26176 327.651 -4.76431 324.861C-6.26893 322.028 -7.46848 319.667 -7.40621 319.604C-7.32319 319.521 -6.74 319.897 -6.08417 320.428Z" fill="url(#paint2_linear)"/>
<path d="M90.3002 223.541C90.5513 223.793 90.5575 223.923 90.3126 223.803C90.0906 223.705 89.9059 223.479 89.8996 223.348C89.8706 223.195 90.0698 223.27 90.3002 223.541Z" fill="url(#paint3_linear)"/>
<path d="M94.3473 226.343C94.5984 226.594 94.6047 226.725 94.3598 226.605C94.1377 226.507 93.953 226.281 93.9468 226.15C93.9177 225.997 94.117 226.071 94.3473 226.343Z" fill="url(#paint4_linear)"/>
<path d="M103.55 235.587C103.869 235.907 103.942 236.062 103.72 235.965C103.541 235.869 103.267 235.595 103.149 235.394C103.074 235.195 103.23 235.267 103.55 235.587Z" fill="url(#paint5_linear)"/>
<path d="M105.326 237.737C105.577 237.988 105.583 238.119 105.339 237.999C105.116 237.901 104.932 237.675 104.926 237.544C104.896 237.39 105.096 237.465 105.326 237.737Z" fill="url(#paint6_linear)"/>
<path d="M106.945 239.771C107.196 240.022 107.202 240.153 106.957 240.032C106.735 239.935 106.551 239.709 106.544 239.578C106.515 239.424 106.715 239.499 106.945 239.771Z" fill="url(#paint7_linear)"/>
<path d="M45.8803 346.449C46.2456 346.814 46.341 346.992 46.0505 346.826C45.8035 346.662 45.4839 346.343 45.3656 346.142C45.2909 345.942 45.4922 346.061 45.8803 346.449Z" fill="url(#paint8_linear)"/>
<path d="M49.1905 349.759C49.6243 350.193 49.7654 350.417 49.4749 350.251C49.2279 350.087 48.8626 349.722 48.6758 349.452C48.5326 349.184 48.7568 349.325 49.1905 349.759Z" fill="url(#paint9_linear)"/>
<path d="M50.7387 351.681C50.9898 351.932 50.996 352.063 50.7511 351.942C50.5291 351.845 50.3443 351.618 50.3381 351.488C50.3091 351.334 50.5083 351.409 50.7387 351.681Z" fill="url(#paint10_linear)"/>
<path d="M63.4466 429.103C63.7267 429.051 63.8824 429.124 63.7786 429.227C63.6541 429.352 63.3116 429.466 63.0315 429.518C62.7513 429.57 62.5749 429.518 62.6994 429.394C62.8032 429.29 63.1664 429.155 63.4466 429.103Z" fill="url(#paint11_linear)"/>
<path d="M64.9409 428.522C65.2211 428.47 65.3768 428.543 65.273 428.646C65.1485 428.771 64.806 428.885 64.5258 428.937C64.2457 428.989 64.0692 428.937 64.1938 428.812C64.2975 428.709 64.6608 428.574 64.9409 428.522Z" fill="url(#paint12_linear)"/>
<path d="M67.0786 427.754C67.3588 427.702 67.5145 427.775 67.4107 427.879C67.2862 428.003 66.9437 428.117 66.6635 428.169C66.3834 428.221 66.2069 428.169 66.3315 428.045C66.4352 427.941 66.7985 427.806 67.0786 427.754Z" fill="url(#paint13_linear)"/>
<path d="M67.1735 451.676C70.7205 452.192 78.0156 453.801 77.8081 454.008C77.7458 454.07 76.6707 453.867 75.3736 453.566C72.4929 452.885 68.479 452.151 66.6899 452.022C65.9469 451.943 65.3305 451.784 65.3243 451.653C65.3181 451.522 66.1462 451.561 67.1735 451.676Z" fill="url(#paint14_linear)"/>
<path d="M71.4236 464.684C74.5616 464.834 80.6157 465.035 84.86 465.128C92.8484 465.313 97.2006 465.846 101.395 467.176C114.043 471.148 124.764 482.16 137.422 504.158L139.601 507.914L134.495 507.541C125.66 506.925 119.06 505.306 114.013 502.5C110.752 500.692 106.855 496.919 102.795 491.573C100.106 488.053 99.4706 487.045 99.1988 485.901C98.7111 483.877 97.2666 481.852 95.1954 480.362C92.9207 478.71 90.8225 477.566 82.8093 473.662C77.3343 471.01 65.7431 465.023 65.4234 464.703C65.1495 464.429 66.455 464.448 71.4236 464.684Z" fill="url(#paint15_linear)"/>
<path d="M80.0911 454.465C80.4667 454.591 80.7137 454.755 80.6722 454.797C80.6099 454.859 80.2592 454.799 79.8835 454.672C79.5079 454.545 79.2609 454.382 79.3024 454.34C79.3647 454.278 79.7154 454.338 80.0911 454.465Z" fill="url(#paint16_linear)"/>
<path d="M109.774 467.792C114.365 470.142 115.131 470.7 120.647 476.05C126.001 481.197 128.905 484.64 132.464 489.985C133.917 492.184 133.209 491.477 127.878 485.439C120.29 476.773 115.49 472.304 109.452 468.342C108.419 467.641 107.561 466.991 107.578 466.883C107.551 466.773 108.549 467.191 109.774 467.792Z" fill="url(#paint17_linear)"/>
<path d="M1282.12 219.577C1250.58 224.926 1230.6 233.487 1210.07 250.488L1206.02 253.834L1207.2 248.799C1207.85 246.028 1208.26 243.878 1208.12 244.015C1207.98 244.152 1206.88 245.922 1205.67 247.915C1200.58 256.333 1194.82 264.499 1190.42 269.557C1184.81 276.086 1184.61 276.248 1176.28 280.754C1167.71 285.423 1162.27 287.748 1145.2 294.192C1133.6 298.57 1128.72 300.629 1122.81 303.759C1113.71 308.54 1107.51 313.075 1100.32 320.266C1098.02 322.572 1096.13 324.38 1096.13 324.293C1096.16 324.139 1101.62 317.182 1106.27 311.417C1110.54 306.147 1114.26 302.013 1119.74 296.578C1126.13 290.185 1129.53 287.328 1135.09 283.627C1136.75 282.548 1138.4 281.361 1138.74 281.018C1139.79 279.968 1145.91 271.893 1148.48 268.161C1156.1 257.101 1160.42 246.807 1161.52 236.905C1162.08 231.899 1161.81 219.758 1161.15 220.42C1161.01 220.557 1159.72 222.51 1158.29 224.774C1140.86 252.043 1125.51 267.972 1112.32 272.492C1107.47 274.179 1103.13 274.451 1098.58 273.363C1096.71 272.909 1096.62 272.913 1091.03 274.853C1079.95 278.663 1074.14 281.027 1067.34 284.503C1060.68 287.93 1053.31 292.564 1047.82 296.804C1046.69 297.684 1045 298.96 1044.08 299.678C1043.15 300.396 1040.91 302.264 1039.12 303.85C1037.12 305.641 1035.02 307.241 1033.7 308.021C1030.25 310.055 1025.82 313.114 1021.85 316.173C1017.72 319.349 1009.42 327.397 1005.83 331.743C1001.72 336.722 996.899 343.865 995.225 347.533C994.739 348.6 994.282 349.513 994.191 349.604C993.963 349.832 992.585 344.071 992.034 340.553C991.731 338.697 991.518 335.881 991.526 334.337C991.513 332.772 991.439 331.602 991.324 331.716C990.845 332.195 987.17 339.523 984.241 345.772C971.721 372.655 965.3 396.552 964.657 418.739C963.78 448.59 973.444 474.874 994.851 500.664C996.497 502.629 997.775 504.547 998.73 506.415C1003.33 515.306 1008.71 522.965 1015.84 530.735C1032.66 549.112 1054.51 559.683 1077.66 560.646C1081.98 560.81 1090.38 560.259 1094.17 559.578C1108.12 557.001 1120.79 551.223 1132.13 542.291C1140.9 535.394 1149.46 525.789 1155.95 515.653L1157.64 513.007L1156.11 513.536C1152.33 514.912 1143.14 517.458 1139.74 518.076C1135.36 518.894 1129.8 519.137 1126.56 518.639C1123.84 518.246 1118.46 516.611 1116.42 515.577L1115 514.84L1116.22 513.912C1119.63 511.337 1128.98 501.194 1132.45 496.311C1139.37 486.611 1148.34 477.182 1156.87 470.688C1170.11 460.6 1184.24 454.687 1200.99 452.259C1205.07 451.674 1212.42 451.085 1211.14 451.45C1210.75 451.556 1211.09 451.583 1211.9 451.523C1219.67 450.892 1224.72 450.782 1230.82 451.036C1233.42 451.173 1235.49 451.14 1235.41 450.926C1235.31 450.735 1235.52 450.486 1236.12 450.174C1238.06 449.191 1238.19 446.488 1236.43 443.68C1235.02 441.399 1233.24 439.984 1227.91 436.715C1223.66 434.156 1215.21 429.949 1213.76 429.735C1213.35 429.646 1213.35 429.689 1213.8 429.907C1216.44 431.13 1217.71 431.765 1217.68 431.918C1217.66 432.311 1215.36 435.986 1215.09 436.042C1214.67 436.171 1214.88 436.335 1216.6 437.275C1217.41 437.715 1218.21 438.242 1218.37 438.408C1218.54 438.574 1217.6 438.14 1216.25 437.422C1208.93 433.487 1199.66 429.927 1193.46 428.701C1192.34 428.493 1191.39 428.277 1191.37 428.256C1191.35 428.236 1192.31 427.69 1193.5 427.047C1198.09 424.61 1206.21 419.397 1210.65 416.033C1225.95 404.39 1235.66 390.36 1239.63 374.147C1240.66 369.88 1241.23 366.569 1240.93 366.584C1240.79 366.59 1237.79 368.146 1234.22 370.056C1219.96 377.67 1206.83 383.078 1194.16 386.53C1189.93 387.688 1184.83 388.843 1184.67 388.677C1184.61 388.615 1185.02 387.291 1185.59 385.72C1186.89 382.266 1188.61 375.77 1189.68 370.588L1190.43 366.769L1194.22 364.393C1208.54 355.384 1217.04 348.956 1224.71 341.286C1231.27 334.734 1234.32 330.848 1238.76 323.375C1239.71 321.808 1241.31 319.579 1242.35 318.421C1246.9 313.29 1248.22 308.814 1249.42 294.037C1250.12 285.828 1250.83 280.968 1252.18 275.468C1256.54 257.822 1266.22 241.707 1283.89 222.71L1287.67 218.639L1282.12 219.577ZM1219.46 439.27C1219.33 439.276 1219.12 439.112 1219.05 438.898C1218.95 438.664 1219.08 438.657 1219.31 438.886C1219.56 439.091 1219.61 439.284 1219.46 439.27Z" fill="url(#paint18_linear)"/>
<path d="M1231.23 215.258C1227.57 215.845 1224.05 216.252 1217.09 216.91C1201.21 218.339 1194.49 220.29 1186.46 225.782C1176.03 232.975 1165.5 247.413 1154.92 269.116L1153.62 271.787L1157.47 271.256C1167.39 269.849 1174.38 267.668 1180.09 264.244C1182.77 262.637 1187.05 258.694 1189.23 255.851C1192.43 251.698 1197.29 244.096 1197.36 243.158C1197.4 242.699 1197.74 241.574 1198.08 240.688C1198.65 239.291 1199.09 238.726 1201.39 236.464C1204.34 233.563 1204.47 233.47 1216.36 226.316C1225.98 220.509 1234.39 215.13 1234.16 214.901C1234.1 214.839 1232.77 215.011 1231.23 215.258Z" fill="url(#paint19_linear)"/>
<path d="M1281.85 320.433C1281.17 320.987 1279.07 322.631 1277.13 324.071C1275.21 325.532 1272.05 328.031 1270.1 329.602C1260.44 337.476 1258.24 338.647 1254.2 338.078C1253.25 337.949 1250.88 338.236 1248.01 338.873C1241.26 340.302 1238.71 341.359 1234.83 344.283C1231.43 346.858 1227.53 352.001 1223.61 359.081L1222.25 361.559L1224.19 361.488C1233.18 361.169 1245.57 358.992 1252.43 356.491C1258.65 354.217 1262.05 352.098 1266.27 347.918C1270.06 344.128 1271.35 342.306 1275.03 335.216C1276.52 332.319 1279.02 327.656 1280.53 324.866C1282.03 322.033 1283.23 319.671 1283.17 319.609C1283.08 319.526 1282.5 319.902 1281.85 320.433Z" fill="url(#paint20_linear)"/>
<path d="M1185.46 223.546C1185.21 223.798 1185.2 223.928 1185.45 223.808C1185.67 223.71 1185.86 223.484 1185.86 223.353C1185.89 223.2 1185.69 223.275 1185.46 223.546Z" fill="url(#paint21_linear)"/>
<path d="M1181.41 226.348C1181.16 226.599 1181.16 226.73 1181.4 226.61C1181.62 226.512 1181.81 226.286 1181.81 226.155C1181.84 226.002 1181.64 226.076 1181.41 226.348Z" fill="url(#paint22_linear)"/>
<path d="M1172.21 235.592C1171.89 235.911 1171.82 236.067 1172.04 235.97C1172.22 235.874 1172.49 235.6 1172.61 235.399C1172.69 235.2 1172.53 235.272 1172.21 235.592Z" fill="url(#paint23_linear)"/>
<path d="M1170.44 237.742C1170.18 237.993 1170.18 238.124 1170.42 238.003C1170.64 237.906 1170.83 237.68 1170.84 237.549C1170.86 237.395 1170.67 237.47 1170.44 237.742Z" fill="url(#paint24_linear)"/>
<path d="M1168.82 239.776C1168.57 240.027 1168.56 240.158 1168.8 240.037C1169.03 239.94 1169.21 239.714 1169.22 239.583C1169.25 239.429 1169.05 239.504 1168.82 239.776Z" fill="url(#paint25_linear)"/>
<path d="M1229.88 346.454C1229.52 346.819 1229.42 346.997 1229.71 346.831C1229.96 346.667 1230.28 346.348 1230.4 346.146C1230.47 345.947 1230.27 346.065 1229.88 346.454Z" fill="url(#paint26_linear)"/>
<path d="M1226.57 349.764C1226.14 350.198 1226 350.422 1226.29 350.256C1226.53 350.092 1226.9 349.726 1227.09 349.457C1227.23 349.189 1227 349.33 1226.57 349.764Z" fill="url(#paint27_linear)"/>
<path d="M1225.02 351.686C1224.77 351.937 1224.77 352.067 1225.01 351.947C1225.23 351.85 1225.42 351.623 1225.42 351.493C1225.45 351.339 1225.25 351.414 1225.02 351.686Z" fill="url(#paint28_linear)"/>
<path d="M1212.31 429.108C1212.03 429.056 1211.88 429.129 1211.98 429.232C1212.11 429.357 1212.45 429.471 1212.73 429.523C1213.01 429.575 1213.19 429.523 1213.06 429.398C1212.96 429.295 1212.59 429.16 1212.31 429.108Z" fill="url(#paint29_linear)"/>
<path d="M1210.82 428.527C1210.54 428.475 1210.38 428.548 1210.49 428.651C1210.61 428.776 1210.96 428.89 1211.24 428.942C1211.52 428.994 1211.69 428.942 1211.57 428.817C1211.46 428.714 1211.1 428.579 1210.82 428.527Z" fill="url(#paint30_linear)"/>
<path d="M1208.68 427.759C1208.4 427.707 1208.25 427.78 1208.35 427.883C1208.48 428.008 1208.82 428.122 1209.1 428.174C1209.38 428.226 1209.55 428.174 1209.43 428.05C1209.33 427.946 1208.96 427.811 1208.68 427.759Z" fill="url(#paint31_linear)"/>
<path d="M1208.59 451.68C1205.04 452.197 1197.75 453.805 1197.95 454.013C1198.02 454.075 1199.09 453.872 1200.39 453.571C1203.27 452.89 1207.28 452.156 1209.07 452.027C1209.81 451.948 1210.43 451.788 1210.44 451.658C1210.44 451.527 1209.62 451.566 1208.59 451.68Z" fill="url(#paint32_linear)"/>
<path d="M1204.34 464.689C1201.2 464.839 1195.15 465.04 1190.9 465.133C1182.91 465.318 1178.56 465.851 1174.37 467.181C1161.72 471.153 1151 482.165 1138.34 504.163L1136.16 507.919L1141.27 507.546C1150.1 506.929 1156.7 505.311 1161.75 502.505C1165.01 500.697 1168.91 496.924 1172.97 491.578C1175.66 488.058 1176.29 487.049 1176.56 485.906C1177.05 483.882 1178.49 481.857 1180.57 480.367C1182.84 478.715 1184.94 477.571 1192.95 473.667C1198.43 471.015 1210.02 465.028 1210.34 464.708C1210.61 464.434 1209.31 464.453 1204.34 464.689Z" fill="url(#paint33_linear)"/>
<path d="M1195.67 454.469C1195.29 454.596 1195.05 454.76 1195.09 454.801C1195.15 454.864 1195.5 454.804 1195.88 454.677C1196.25 454.55 1196.5 454.386 1196.46 454.345C1196.4 454.283 1196.05 454.343 1195.67 454.469Z" fill="url(#paint34_linear)"/>
<path d="M1165.99 467.797C1161.4 470.147 1160.63 470.705 1155.11 476.055C1149.76 481.202 1146.86 484.645 1143.3 489.989C1141.84 492.189 1142.55 491.482 1147.88 485.444C1155.47 476.777 1160.27 472.309 1166.31 468.347C1167.34 467.646 1168.2 466.996 1168.18 466.888C1168.21 466.778 1167.21 467.195 1165.99 467.797Z" fill="url(#paint35_linear)"/>
</g>
<defs>
<linearGradient id="paint0_linear" x1="280.898" y1="509.898" x2="-11.1368" y2="217.863" gradientUnits="userSpaceOnUse">
<stop stop-color="#AF0C0C"/>
<stop offset="0.578125" stop-color="#FFB930"/>
<stop offset="1" stop-color="#ECE420"/>
</linearGradient>
<linearGradient id="paint1_linear" x1="119.783" y1="274.144" x2="51.0665" y2="205.428" gradientUnits="userSpaceOnUse">
<stop stop-color="#AF0C0C"/>
<stop offset="0.578125" stop-color="#FFB930"/>
<stop offset="1" stop-color="#ECE420"/>
</linearGradient>
<linearGradient id="paint2_linear" x1="47.1523" y1="367.915" x2="-4.28224" y2="316.48" gradientUnits="userSpaceOnUse">
<stop stop-color="#AF0C0C"/>
<stop offset="0.578125" stop-color="#FFB930"/>
<stop offset="1" stop-color="#ECE420"/>
</linearGradient>
<linearGradient id="paint3_linear" x1="90.4613" y1="223.861" x2="89.896" y2="223.295" gradientUnits="userSpaceOnUse">
<stop stop-color="#AF0C0C"/>
<stop offset="0.578125" stop-color="#FFB930"/>
<stop offset="1" stop-color="#ECE420"/>
</linearGradient>
<linearGradient id="paint4_linear" x1="94.5085" y1="226.662" x2="93.9431" y2="226.097" gradientUnits="userSpaceOnUse">
<stop stop-color="#AF0C0C"/>
<stop offset="0.578125" stop-color="#FFB930"/>
<stop offset="1" stop-color="#ECE420"/>
</linearGradient>
<linearGradient id="paint5_linear" x1="103.828" y1="236" x2="103.128" y2="235.301" gradientUnits="userSpaceOnUse">
<stop stop-color="#AF0C0C"/>
<stop offset="0.578125" stop-color="#FFB930"/>
<stop offset="1" stop-color="#ECE420"/>
</linearGradient>
<linearGradient id="paint6_linear" x1="105.487" y1="238.056" x2="104.922" y2="237.491" gradientUnits="userSpaceOnUse">
<stop stop-color="#AF0C0C"/>
<stop offset="0.578125" stop-color="#FFB930"/>
<stop offset="1" stop-color="#ECE420"/>
</linearGradient>
<linearGradient id="paint7_linear" x1="107.106" y1="240.09" x2="106.541" y2="239.525" gradientUnits="userSpaceOnUse">
<stop stop-color="#AF0C0C"/>
<stop offset="0.578125" stop-color="#FFB930"/>
<stop offset="1" stop-color="#ECE420"/>
</linearGradient>
<linearGradient id="paint8_linear" x1="46.1984" y1="346.902" x2="45.3536" y2="346.057" gradientUnits="userSpaceOnUse">
<stop stop-color="#AF0C0C"/>
<stop offset="0.578125" stop-color="#FFB930"/>
<stop offset="1" stop-color="#ECE420"/>
</linearGradient>
<linearGradient id="paint9_linear" x1="49.61" y1="350.313" x2="48.6278" y2="349.331" gradientUnits="userSpaceOnUse">
<stop stop-color="#AF0C0C"/>
<stop offset="0.578125" stop-color="#FFB930"/>
<stop offset="1" stop-color="#ECE420"/>
</linearGradient>
<linearGradient id="paint10_linear" x1="50.8998" y1="352" x2="50.3345" y2="351.435" gradientUnits="userSpaceOnUse">
<stop stop-color="#AF0C0C"/>
<stop offset="0.578125" stop-color="#FFB930"/>
<stop offset="1" stop-color="#ECE420"/>
</linearGradient>
<linearGradient id="paint11_linear" x1="63.4627" y1="429.543" x2="63.0061" y2="429.087" gradientUnits="userSpaceOnUse">
<stop stop-color="#AF0C0C"/>
<stop offset="0.578125" stop-color="#FFB930"/>
<stop offset="1" stop-color="#ECE420"/>
</linearGradient>
<linearGradient id="paint12_linear" x1="64.9571" y1="428.962" x2="64.5005" y2="428.506" gradientUnits="userSpaceOnUse">
<stop stop-color="#AF0C0C"/>
<stop offset="0.578125" stop-color="#FFB930"/>
<stop offset="1" stop-color="#ECE420"/>
</linearGradient>
<linearGradient id="paint13_linear" x1="67.0948" y1="428.195" x2="66.6382" y2="427.738" gradientUnits="userSpaceOnUse">
<stop stop-color="#AF0C0C"/>
<stop offset="0.578125" stop-color="#FFB930"/>
<stop offset="1" stop-color="#ECE420"/>
</linearGradient>
<linearGradient id="paint14_linear" x1="75.2762" y1="456.54" x2="67.8496" y2="449.113" gradientUnits="userSpaceOnUse">
<stop stop-color="#AF0C0C"/>
<stop offset="0.578125" stop-color="#FFB930"/>
<stop offset="1" stop-color="#ECE420"/>
</linearGradient>
<linearGradient id="paint15_linear" x1="134.064" y1="513.451" x2="75.3124" y2="454.7" gradientUnits="userSpaceOnUse">
<stop stop-color="#AF0C0C"/>
<stop offset="0.578125" stop-color="#FFB930"/>
<stop offset="1" stop-color="#ECE420"/>
</linearGradient>
<linearGradient id="paint16_linear" x1="80.4439" y1="455.025" x2="79.5307" y2="454.112" gradientUnits="userSpaceOnUse">
<stop stop-color="#AF0C0C"/>
<stop offset="0.578125" stop-color="#FFB930"/>
<stop offset="1" stop-color="#ECE420"/>
</linearGradient>
<linearGradient id="paint17_linear" x1="133.444" y1="490.795" x2="108.55" y2="465.902" gradientUnits="userSpaceOnUse">
<stop stop-color="#AF0C0C"/>
<stop offset="0.578125" stop-color="#FFB930"/>
<stop offset="1" stop-color="#ECE420"/>
</linearGradient>
<linearGradient id="paint18_linear" x1="994.863" y1="509.903" x2="1286.9" y2="217.868" gradientUnits="userSpaceOnUse">
<stop stop-color="#AF0C0C"/>
<stop offset="0.578125" stop-color="#FFB930"/>
<stop offset="1" stop-color="#ECE420"/>
</linearGradient>
<linearGradient id="paint19_linear" x1="1155.98" y1="274.149" x2="1224.69" y2="205.433" gradientUnits="userSpaceOnUse">
<stop stop-color="#AF0C0C"/>
<stop offset="0.578125" stop-color="#FFB930"/>
<stop offset="1" stop-color="#ECE420"/>
</linearGradient>
<linearGradient id="paint20_linear" x1="1228.61" y1="367.92" x2="1280.04" y2="316.485" gradientUnits="userSpaceOnUse">
<stop stop-color="#AF0C0C"/>
<stop offset="0.578125" stop-color="#FFB930"/>
<stop offset="1" stop-color="#ECE420"/>
</linearGradient>
<linearGradient id="paint21_linear" x1="1185.3" y1="223.866" x2="1185.87" y2="223.3" gradientUnits="userSpaceOnUse">
<stop stop-color="#AF0C0C"/>
<stop offset="0.578125" stop-color="#FFB930"/>
<stop offset="1" stop-color="#ECE420"/>
</linearGradient>
<linearGradient id="paint22_linear" x1="1181.25" y1="226.667" x2="1181.82" y2="226.102" gradientUnits="userSpaceOnUse">
<stop stop-color="#AF0C0C"/>
<stop offset="0.578125" stop-color="#FFB930"/>
<stop offset="1" stop-color="#ECE420"/>
</linearGradient>
<linearGradient id="paint23_linear" x1="1171.93" y1="236.005" x2="1172.63" y2="235.306" gradientUnits="userSpaceOnUse">
<stop stop-color="#AF0C0C"/>
<stop offset="0.578125" stop-color="#FFB930"/>
<stop offset="1" stop-color="#ECE420"/>
</linearGradient>
<linearGradient id="paint24_linear" x1="1170.27" y1="238.061" x2="1170.84" y2="237.496" gradientUnits="userSpaceOnUse">
<stop stop-color="#AF0C0C"/>
<stop offset="0.578125" stop-color="#FFB930"/>
<stop offset="1" stop-color="#ECE420"/>
</linearGradient>
<linearGradient id="paint25_linear" x1="1168.66" y1="240.095" x2="1169.22" y2="239.53" gradientUnits="userSpaceOnUse">
<stop stop-color="#AF0C0C"/>
<stop offset="0.578125" stop-color="#FFB930"/>
<stop offset="1" stop-color="#ECE420"/>
</linearGradient>
<linearGradient id="paint26_linear" x1="1229.56" y1="346.907" x2="1230.41" y2="346.062" gradientUnits="userSpaceOnUse">
<stop stop-color="#AF0C0C"/>
<stop offset="0.578125" stop-color="#FFB930"/>
<stop offset="1" stop-color="#ECE420"/>
</linearGradient>
<linearGradient id="paint27_linear" x1="1226.15" y1="350.318" x2="1227.13" y2="349.336" gradientUnits="userSpaceOnUse">
<stop stop-color="#AF0C0C"/>
<stop offset="0.578125" stop-color="#FFB930"/>
<stop offset="1" stop-color="#ECE420"/>
</linearGradient>
<linearGradient id="paint28_linear" x1="1224.86" y1="352.005" x2="1225.43" y2="351.439" gradientUnits="userSpaceOnUse">
<stop stop-color="#AF0C0C"/>
<stop offset="0.578125" stop-color="#FFB930"/>
<stop offset="1" stop-color="#ECE420"/>
</linearGradient>
<linearGradient id="paint29_linear" x1="1212.3" y1="429.548" x2="1212.76" y2="429.092" gradientUnits="userSpaceOnUse">
<stop stop-color="#AF0C0C"/>
<stop offset="0.578125" stop-color="#FFB930"/>
<stop offset="1" stop-color="#ECE420"/>
</linearGradient>
<linearGradient id="paint30_linear" x1="1210.8" y1="428.967" x2="1211.26" y2="428.511" gradientUnits="userSpaceOnUse">
<stop stop-color="#AF0C0C"/>
<stop offset="0.578125" stop-color="#FFB930"/>
<stop offset="1" stop-color="#ECE420"/>
</linearGradient>
<linearGradient id="paint31_linear" x1="1208.67" y1="428.199" x2="1209.12" y2="427.743" gradientUnits="userSpaceOnUse">
<stop stop-color="#AF0C0C"/>
<stop offset="0.578125" stop-color="#FFB930"/>
<stop offset="1" stop-color="#ECE420"/>
</linearGradient>
<linearGradient id="paint32_linear" x1="1200.49" y1="456.545" x2="1207.91" y2="449.118" gradientUnits="userSpaceOnUse">
<stop stop-color="#AF0C0C"/>
<stop offset="0.578125" stop-color="#FFB930"/>
<stop offset="1" stop-color="#ECE420"/>
</linearGradient>
<linearGradient id="paint33_linear" x1="1141.7" y1="513.456" x2="1200.45" y2="454.705" gradientUnits="userSpaceOnUse">
<stop stop-color="#AF0C0C"/>
<stop offset="0.578125" stop-color="#FFB930"/>
<stop offset="1" stop-color="#ECE420"/>
</linearGradient>
<linearGradient id="paint34_linear" x1="1195.32" y1="455.03" x2="1196.23" y2="454.117" gradientUnits="userSpaceOnUse">
<stop stop-color="#AF0C0C"/>
<stop offset="0.578125" stop-color="#FFB930"/>
<stop offset="1" stop-color="#ECE420"/>
</linearGradient>
<linearGradient id="paint35_linear" x1="1142.32" y1="490.8" x2="1167.21" y2="465.907" gradientUnits="userSpaceOnUse">
<stop stop-color="#AF0C0C"/>
<stop offset="0.578125" stop-color="#FFB930"/>
<stop offset="1" stop-color="#ECE420"/>
</linearGradient>
<clipPath id="clip0">
<rect width="1280" height="720" fill="white"/>
</clipPath>
</defs>
</svg>
