<svg width="1279" height="194" viewBox="0 0 1279 194" fill="none" xmlns="http://www.w3.org/2000/svg">
<path d="M263.5 1.51288C252.6 6.21288 248.8 18.7129 254.5 31.5129C256.4 35.8129 258.4 37.7129 270.2 45.9129C277.4 50.9129 288.2 62.3129 293.6 70.8129C295.1 73.2129 296.9 77.5129 297.5 80.3129C302.3 103.713 320 91.0129 319.7 64.3129C319.4 38.1129 302 7.81288 283.6 1.41288C278 -0.487123 268.1 -0.487123 263.5 1.51288Z" fill="url(#paint0_linear)"/>
<path d="M926 3.31277C915 6.21277 907.2 11.0128 896.1 21.8128C878.2 39.2128 868.5 60.9128 871.3 77.7128C872.6 85.2128 874.5 88.6128 878.1 89.5128C882.5 90.6128 887.1 87.6128 890.6 81.4128C894.4 74.6128 900 69.6128 911.8 62.5128C921.2 56.9128 926.5 54.6128 939.1 51.0128C947.9 48.4128 952.1 45.6128 956.2 39.6128C963.2 29.1128 962.8 18.1128 955 10.3128C948.3 3.61277 936 0.612768 926 3.31277Z" fill="url(#paint1_linear)"/>
<path d="M416.8 18.3128C397.3 22.8128 383.7 36.0128 380.5 53.8128C378.6 64.2128 381.4 73.6128 388.6 81.4128C396.8 90.3128 404.3 92.9128 425.5 93.9128C439.3 94.5128 443.3 95.1128 449.8 97.3128C469 103.813 479.7 116.313 479.9 132.513C480 148.113 469.1 160.913 450.1 167.313C435.6 172.213 404.9 177.713 385.5 178.913C362.5 180.213 351.1 178.613 320.8 169.613C299 163.113 294.4 162.613 259.5 162.313C231.6 162.113 226.8 161.913 217.5 159.913C197.7 155.813 184.8 149.813 170.7 138.013C126.8 101.313 94.3 87.3128 67.4 93.3128C49.2 97.4128 39.5 107.913 39.5 123.413C39.6 132.913 44.8 140.013 54.2 143.313C56.5 144.113 63.2 145.513 69.2 146.413C80.9 148.313 86.6 150.513 89.1 154.413C92.7 159.813 88.6 167.713 80 172.113C76.9 173.713 72.9 174.413 62.5 175.113C37.5 176.713 12.1 183.813 2.5 191.813L0 193.813L639.4 193.913C991.1 193.913 1278.6 193.713 1278.4 193.513C1278.2 193.313 1271.7 191.513 1264 189.413C1245 184.513 1235.3 181.013 1213.5 171.613C1173.2 154.313 1163.9 151.113 1145.9 148.813C1130.3 146.913 1115.4 148.813 1097.5 155.113C1092.6 156.813 1086.8 158.113 1083.9 158.113C1075 158.213 1067.7 153.013 1065.5 145.013C1062.6 134.313 1071 125.513 1086.6 122.913C1090.1 122.313 1098.5 121.013 1105.3 119.913C1124.8 116.713 1135.1 111.813 1140.5 103.213C1144.1 97.6128 1145.2 94.0128 1146.5 83.9128C1149.1 64.6128 1140.9 50.5128 1121.4 40.4128C1096.2 27.4128 1065.6 27.4128 1032.1 40.6128C1003.8 51.7128 974.8 70.1128 937.7 100.713C927.4 109.113 915.5 118.713 911.3 122.013C882.1 144.513 848.4 160.313 814 167.613C802.7 169.913 798.7 170.313 783.5 170.413C762.6 170.413 762.2 170.313 739 158.513C718.4 147.913 710.4 145.813 688 145.213C675.6 144.813 667.2 145.213 651 146.913C608.3 151.513 585 147.813 562.4 133.013C545.6 121.913 537 112.013 512.4 75.3128C487.9 38.8128 476.4 27.5128 456.6 20.6128C449.2 18.0128 446.3 17.5128 435.5 17.3128C427.2 17.0128 420.9 17.4128 416.8 18.3128Z" fill="url(#paint2_linear)"/>
<path d="M809 21.1128C801.3 23.9128 793.5 31.9128 787.9 42.9128C785.7 47.2128 785.1 49.8128 785.1 54.9128C785.1 63.0128 786.6 66.1128 790.3 65.7128C792.3 65.5128 793.6 64.3128 795.3 61.2128C798.4 55.6128 806.7 49.2128 815.7 45.3128C824.2 41.7128 827.5 37.9128 827.5 31.7128C827.5 26.3128 826.1 24.1128 821.2 21.8128C816.5 19.7128 813.4 19.5128 809 21.1128Z" fill="url(#paint3_linear)"/>
<path d="M566 24.0129C555.5 30.0129 551.2 35.9129 548.8 47.5129C547.5 53.9129 547.4 56.6129 548.4 63.3129C551.9 88.5129 565.5 111.313 581.6 118.913C591.6 123.613 597.5 122.713 599.1 116.213C599.6 114.313 598.8 111.713 596.1 106.513C594.1 102.513 592 96.7129 591.5 93.4129C589.8 83.2129 590.3 67.8129 592.6 57.6129C593.8 52.3129 594.5 46.4129 594.2 43.7129C593.7 37.9129 589.6 30.8129 584.2 26.5129C581.1 24.0129 579.4 23.4129 574.2 23.2129C570.8 23.0129 567.1 23.4129 566 24.0129Z" fill="url(#paint4_linear)"/>
<path d="M34.0001 28.8128C23.6001 34.2128 22.6001 46.2128 32.2001 52.4128C34.5001 53.9128 37.3001 54.3128 49.0001 54.4128C63.2001 54.6128 69.6001 55.9128 73.5001 59.4128C74.3001 60.1128 76.2001 61.2128 77.8001 61.8128C80.1001 62.7128 80.9001 62.5128 82.6001 60.8128C85.1001 58.3128 84.6001 54.8128 80.6001 47.5128C77.4001 41.5128 70.5001 35.8128 60.6001 31.1128C51.0001 26.5128 40.3001 25.6128 34.0001 28.8128Z" fill="url(#paint5_linear)"/>
<path d="M1225.7 32.4129C1211.9 37.7129 1201.7 48.5129 1202.7 56.8129C1203.3 61.4129 1205.7 61.6129 1213.1 57.8129C1219.8 54.4129 1220 54.4129 1233.4 54.4129C1247.9 54.3129 1249.8 53.8129 1253.4 49.3129C1257.8 43.7129 1254.9 35.2129 1247.4 31.4129C1243.1 29.1129 1233.1 29.6129 1225.7 32.4129Z" fill="url(#paint6_linear)"/>
<path d="M157.7 32.7128C151.6 34.9128 149 37.1128 146.4 42.1128C144.1 46.7128 144 52.0128 146.1 58.4128C148.5 65.3128 153.5 69.8128 163.5 73.9128C178.1 79.9128 193.6 93.1128 199 104.213C202.7 111.913 206.1 114.213 210.2 111.913C213.7 109.913 215.4 106.413 216.8 98.3128C219.5 82.4128 210.5 60.9128 194.2 44.6128C182.5 32.9128 169.4 28.6128 157.7 32.7128Z" fill="url(#paint7_linear)"/>
<path d="M693.3 49.9128C668.1 54.5128 642.6 71.0128 634.3 88.1128C628.7 99.5128 628.6 107.013 633.9 110.413C637.2 112.613 641.1 111.713 646.6 107.713C658.4 99.2128 677.5 96.0128 700.7 98.7128L714.5 100.313L721.2 96.8128C736 89.3128 740.5 75.0128 731.8 63.2128C725.3 54.4128 717 50.1128 705.2 49.4128C701.2 49.2128 695.9 49.4128 693.3 49.9128Z" fill="url(#paint8_linear)"/>
<path d="M1196.1 96.1128C1186.9 98.6128 1171.2 118.513 1172.9 125.413C1174.1 130.313 1183.8 131.313 1196.3 127.913C1212 123.513 1217.5 118.813 1217.5 109.713C1217.5 100.013 1206.8 93.2128 1196.1 96.1128Z" fill="url(#paint9_linear)"/>
<path d="M793.5 102.513C780.3 107.213 762.2 129.213 760.8 142.313C760.2 147.613 762.3 150.213 768.5 151.913C780.9 155.213 814.2 144.613 821.1 135.213C826.5 127.713 826.9 118.013 822.1 111.113C816.5 102.913 803.3 99.0129 793.5 102.513Z" fill="url(#paint10_linear)"/>
<path d="M252.8 105.413C248.2 107.413 246.1 111.113 246.8 116.013C247.6 122.113 249.9 124.713 257.8 128.313C266.1 132.113 274.4 138.513 276.5 142.613C280.2 150.013 283.7 151.013 286.2 145.213C292.1 131.013 274.2 103.913 259 104.013C257.4 104.013 254.6 104.613 252.8 105.413Z" fill="url(#paint11_linear)"/>
<path d="M371.5 109.813C363 112.813 356.5 121.313 356.5 129.413C356.5 137.513 363 146.113 372.5 150.313C388.1 157.313 412.9 160.013 419.2 155.313C421.7 153.413 422 152.513 422 147.713C422 140.513 417.7 133.313 406.8 122.213C394.2 109.313 383.4 105.613 371.5 109.813Z" fill="url(#paint12_linear)"/>
<path d="M1246.9 135.713C1240.6 136.213 1230.6 141.713 1228.1 146.113C1226.2 149.513 1226.1 150.013 1227.6 151.413C1228.8 152.713 1229.7 152.713 1232.4 151.813C1236.7 150.313 1246.5 151.313 1253.4 153.913C1258.5 155.913 1258.8 155.913 1262.4 154.213C1264.4 153.213 1266.6 151.113 1267.3 149.613C1268.5 147.213 1268.4 146.313 1266.8 143.113C1263.9 137.213 1257.7 134.913 1246.9 135.713Z" fill="url(#paint13_linear)"/>
<path d="M15.9 144.313C12.2 147.413 12.1 152.713 15.4 156.313C20.7 162.013 38.2 164.813 39.9 160.313C41.3 156.813 34.2 146.313 28.4 143.313C24.1 141.113 19 141.513 15.9 144.313Z" fill="url(#paint14_linear)"/>
<defs>
<linearGradient id="paint0_linear" x1="285.785" y1="92.5823" x2="285.785" y2="0.000137329" gradientUnits="userSpaceOnUse">
<stop stop-color="#4FC4DE"/>
<stop offset="0.765625" stop-color="#0D23ED"/>
</linearGradient>
<linearGradient id="paint1_linear" x1="915.995" y1="89.7363" x2="915.995" y2="2.32518" gradientUnits="userSpaceOnUse">
<stop stop-color="#4FC4DE"/>
<stop offset="0.765625" stop-color="#0D23ED"/>
</linearGradient>
<linearGradient id="paint2_linear" x1="639.2" y1="193.913" x2="639.2" y2="17.2143" gradientUnits="userSpaceOnUse">
<stop stop-color="#4FC4DE"/>
<stop offset="0.765625" stop-color="#0D23ED"/>
</linearGradient>
<linearGradient id="paint3_linear" x1="806.3" y1="65.7468" x2="806.3" y2="20.0548" gradientUnits="userSpaceOnUse">
<stop stop-color="#4FC4DE"/>
<stop offset="0.765625" stop-color="#0D23ED"/>
</linearGradient>
<linearGradient id="paint4_linear" x1="573.484" y1="121.871" x2="573.484" y2="23.1608" gradientUnits="userSpaceOnUse">
<stop stop-color="#4FC4DE"/>
<stop offset="0.765625" stop-color="#0D23ED"/>
</linearGradient>
<linearGradient id="paint5_linear" x1="54.8458" y1="62.3403" x2="54.8458" y2="26.9151" gradientUnits="userSpaceOnUse">
<stop stop-color="#4FC4DE"/>
<stop offset="0.765625" stop-color="#0D23ED"/>
</linearGradient>
<linearGradient id="paint6_linear" x1="1229.05" y1="60.479" x2="1229.05" y2="29.9592" gradientUnits="userSpaceOnUse">
<stop stop-color="#4FC4DE"/>
<stop offset="0.765625" stop-color="#0D23ED"/>
</linearGradient>
<linearGradient id="paint7_linear" x1="180.935" y1="112.763" x2="180.935" y2="31.197" gradientUnits="userSpaceOnUse">
<stop stop-color="#4FC4DE"/>
<stop offset="0.765625" stop-color="#0D23ED"/>
</linearGradient>
<linearGradient id="paint8_linear" x1="683.11" y1="111.584" x2="683.11" y2="49.3361" gradientUnits="userSpaceOnUse">
<stop stop-color="#4FC4DE"/>
<stop offset="0.765625" stop-color="#0D23ED"/>
</linearGradient>
<linearGradient id="paint9_linear" x1="1195.14" y1="129.913" x2="1195.14" y2="95.4378" gradientUnits="userSpaceOnUse">
<stop stop-color="#4FC4DE"/>
<stop offset="0.765625" stop-color="#0D23ED"/>
</linearGradient>
<linearGradient id="paint10_linear" x1="793.072" y1="152.529" x2="793.072" y2="101.227" gradientUnits="userSpaceOnUse">
<stop stop-color="#4FC4DE"/>
<stop offset="0.765625" stop-color="#0D23ED"/>
</linearGradient>
<linearGradient id="paint11_linear" x1="267.011" y1="148.955" x2="267.011" y2="104.013" gradientUnits="userSpaceOnUse">
<stop stop-color="#4FC4DE"/>
<stop offset="0.765625" stop-color="#0D23ED"/>
</linearGradient>
<linearGradient id="paint12_linear" x1="389.25" y1="157.662" x2="389.25" y2="108.162" gradientUnits="userSpaceOnUse">
<stop stop-color="#4FC4DE"/>
<stop offset="0.765625" stop-color="#0D23ED"/>
</linearGradient>
<linearGradient id="paint13_linear" x1="1247.34" y1="155.453" x2="1247.34" y2="135.559" gradientUnits="userSpaceOnUse">
<stop stop-color="#4FC4DE"/>
<stop offset="0.765625" stop-color="#0D23ED"/>
</linearGradient>
<linearGradient id="paint14_linear" x1="26.5495" y1="162.544" x2="26.5495" y2="141.901" gradientUnits="userSpaceOnUse">
<stop stop-color="#4FC4DE"/>
<stop offset="0.765625" stop-color="#0D23ED"/>
</linearGradient>
</defs>
</svg>
