<svg width="1280" height="660" viewBox="0 0 1280 660" fill="none" xmlns="http://www.w3.org/2000/svg">
<path d="M3.9 1.29999C1.8 2.89999 0 6.39999 0 8.79999C0 11.1 7 17.6 14.7 22.6C19.5 25.7 20.6 26 27.7 26C34.7 26 36 26.3 39.9 29C42.4 30.7 45.4 33.8 46.7 36C48 38.2 51.1 41.1 53.5 42.5C57.1 44.7 57.9 45.7 58.5 49C59.4 54.4 62.6 58.9 68.5 62.8C71.5 64.8 74.5 68 76.1 70.9C77.6 73.5 80.7 76.9 83 78.5C90.3 83.5 92 86.4 92 93.1C92 100.2 94 105.6 97.2 107.1C98.5 107.6 100.4 109.8 101.5 111.8C103 114.5 104.7 115.9 108 117.1C112.1 118.6 112.8 119.3 116.2 126.2C121.7 137.2 130.9 145.7 141 148.9C148.3 151.2 154 155.5 154 158.7C154 160.9 160.1 166.9 166.1 170.5C172.9 174.7 175 177.3 175 181.5C175 185.2 179.9 193.3 183.3 195.2C184.6 195.9 187.7 198 190 199.7C193.8 202.6 195 203 200.8 203C205.9 203 208.6 203.6 213.9 206.1C221.9 209.9 223.6 211.4 226.2 216.5C228.7 221.5 231.9 225 233.9 225C234.8 225 237.9 226 240.8 227.2C246 229.4 246.2 229.4 252.8 227.7C261.8 225.4 262.6 225.5 268.4 229.5C273.3 232.8 273.9 232.9 283.5 233.2C292.4 233.4 294 233.2 297.1 231.2C300.2 229.3 300.9 229.2 302.6 230.4C305.8 232.6 311.1 233.2 316.5 231.8C320.8 230.7 322.2 230.7 327 232.2C339.5 236.1 342.3 236.3 349.8 234.1C361.2 230.7 365 231.6 365 237.9C365 240.8 369 243 375.4 243.7C379.3 244.1 381.1 244.8 381.5 245.9C381.8 246.8 384.5 250.1 387.4 253.3L392.8 259.1L397.7 258.5C400.3 258.1 402.9 257.4 403.4 256.9C403.9 256.5 405.2 256.6 406.3 257.1C407.7 257.9 409.5 257.8 412.7 256.9C416.9 255.8 417.6 255.9 421.6 258C425.7 260.3 426.3 260.3 431.8 259.2C442.3 257 444.6 257.9 441 262.8C438.3 266.4 439.5 270.2 444.2 272.6C446 273.5 448.2 275.1 449.1 276.2C450.3 277.8 452.6 278.3 461 279C467.3 279.6 472.9 279.6 475.4 279C477.7 278.5 481.1 278 483 278C485 278 487 277.6 487.6 277C489 275.6 497.7 284.1 501.2 290.2C504.6 296 508.1 298.3 517.4 300.6C527.1 302.9 533.8 306.4 538 311.2C541 314.5 542.4 315.3 546.3 315.7C551.1 316.3 551.1 316.3 554.5 323C558.2 330.4 560.7 332.1 567.5 331.9C569.7 331.9 574.6 332.1 578.3 332.4C584.1 332.9 585.5 332.7 587.5 331.2C589.5 329.6 590.7 329.4 596 330.2C600 330.7 602.8 330.6 604.1 329.9C607.1 328.4 619.1 333.4 624.5 338.5C626.8 340.7 630.1 343.2 631.7 344.1C633.4 345 636.6 348.5 638.9 351.9C643.6 358.8 647.7 361.4 652 360.5C655 359.8 655.2 360 664.5 368.5C665.7 369.7 667.5 372.8 668.5 375.5C671 382.3 673.3 384.6 681.7 388.6C689.5 392.4 694 396.7 694 400.6C694 405.9 700.3 409 707.8 407.2C710.3 406.7 712.9 406.4 713.6 406.7C714.3 406.9 715.9 409.7 717.1 412.8C718.4 416.1 721.7 420.9 724.7 424.2C727.8 427.6 730.3 431.4 731 433.8C732.2 438.5 737.4 443.5 742.5 444.9C744.4 445.4 747.4 447 749.1 448.4C750.8 449.8 753.2 451 754.5 451C758.9 451 762 453.2 764.1 457.9C765.2 460.4 766.9 463.4 768 464.5C769 465.6 770.2 467.7 770.5 469.3C771 471.2 772 472.2 773.9 472.5C775.3 472.8 777.8 473.7 779.3 474.5C780.9 475.3 784.1 476 786.4 476C790.8 476 793 477.3 793 480C793 480.9 794.3 483.4 795.9 485.6C799.7 490.7 800.3 493.5 799 499.3C798.1 503.5 798.3 504.7 800.1 509.1C802 513.4 802.1 514.3 800.9 515.1C800.1 515.6 799 516 798.4 516C797.8 516 796.5 516.9 795.6 517.9C793.9 519.8 793.9 520.1 796.4 525.4C797.8 528.4 799 532.2 799 533.8C799 538 802.4 541.9 806.8 542.6C811.9 543.4 813.4 544.7 815.3 550.4C817.2 555.8 816.9 557 814.4 554.9C812.9 553.7 812.8 553.8 813.5 556C814.6 559.6 819 568.1 820.5 569.7C821.2 570.4 821.6 571.9 821.3 573C821 574.2 821.3 575.1 822.1 575.3C822.9 575.5 825.1 576.2 827 576.8C830.2 577.8 830.3 577.8 828.6 576.5C827.5 575.7 825.5 575 824.2 575C822.2 575 821.9 574.6 822.4 572.6C822.8 571.1 822.4 569.8 821.5 569C820.2 567.9 816 559.7 816 558.2C816 557.9 817.4 558.9 819 560.5C820.7 562.1 822 562.8 822 562.1C822 561.3 823.2 561.7 825.3 563.1C827.9 565 827.6 564.5 824 560.9C821.1 558.1 819.2 556.8 818.7 557.5C818.1 558.1 818 557.8 818.3 556.9C819.5 553.1 810.5 536.5 809.2 540.1C808.5 541.8 804.3 541 802.2 538.7C800.8 537.2 800 535.1 800 532.8C800 530.9 799.1 527.2 797.9 524.6C795.8 519.7 796 518 798.9 518C803 518 804.4 520.4 804.6 527.9C804.7 534.6 806 538 808.3 538C808.8 538 808.5 537.1 807.5 536C806 534.4 805.7 532.4 805.7 527.2C805.8 521.1 805.6 520.3 803.2 518.3C801.7 517 801 516 801.6 516C803.8 516 804 512.9 802 509.3C800.4 506.3 800.2 504.4 800.7 498C801.1 492.9 800.9 489.6 800.1 488.1C798.3 484.8 799.3 484.6 802.8 487.5C804.4 488.9 806.7 490 807.7 490C809.9 490 813 492.9 813.1 495.1C813.1 495.9 814.6 498.5 816.4 501C819.3 505 820.2 505.6 824.3 506C828.6 506.5 829.2 506.9 831.1 510.5C832.3 512.7 833.8 515.2 834.6 516.1C835.4 517 835.9 519.5 835.8 521.7C835.7 524 836.4 526.7 837.3 528.1C838.3 529.4 839 529.9 839 529.2C839 527.6 845.2 527.6 846.8 529.2C847.5 529.9 848 531.4 848 532.6C848 533.8 849.1 537.3 850.5 540.4C852.4 544.7 853.8 546.4 856.1 547.4C858 548.2 859.8 550 860.6 551.8C861.4 553.9 862.8 555.2 864.7 555.6C868.7 556.6 872.8 559.7 873.5 562.3C873.9 563.5 875.9 566.1 877.9 568.1C879.9 570.1 883.3 574 885.5 576.9C887.7 579.7 890.2 582.2 891 582.5C891.8 582.9 891.1 581.7 889.5 579.9C887.2 577.5 887 576.9 888.5 577.5C889.6 578 892 578.4 893.8 578.4C897.9 578.3 897.8 579.7 893.5 584.3C890 588 889.2 590.4 891 591.5C891.6 591.8 892.1 593.1 892.1 594.3C892.2 595.9 892.4 596 892.7 594.8C892.9 593.9 892.6 592.1 892 590.9C891 589 891.3 588.3 894.4 585.1C896.4 583.1 898 580.8 898.1 580C898.1 579 898.5 579.2 899.1 580.5C899.9 582.3 899.9 582.3 899.7 580C899.5 577 893.8 573.8 890.2 574.6C888.4 575 886.8 574 882.9 570.1C880.2 567.4 878 565.5 878 565.8C877.9 566.2 877.4 565.3 876.7 563.8C875 560 867.1 550.7 863.4 548.1C861.6 546.9 859 545.5 857.4 545.1C855.9 544.7 854.3 543.7 853.9 542.9C851.3 538 850 534.3 850 531.9C850 528.4 847.6 526 844 526C838.9 526 838 525.2 838.6 521.1C839.1 518.1 838.6 516.8 836 513.2C834.3 510.8 833.1 508.3 833.3 507.7C833.5 507 833.1 506 832.4 505.5C831.8 504.9 830.9 503.5 830.5 502.2L829.9 500L833.2 502C835 503 837.9 504.7 839.5 505.6C841.2 506.5 844 508.3 845.8 509.7C848.7 511.9 849 512.5 848.4 515.5C847.9 518.5 848.2 519.1 852.4 522.6C855 524.7 857.5 527.9 858.1 529.8C858.7 531.6 859.4 532.9 859.7 532.6C860 532.3 861.6 532.8 863.2 533.6C865.2 534.6 863.3 532.2 857.6 526.5C852.9 521.7 849 517.2 849 516.6C849 513.7 851.3 513 854.4 514.9C856.6 516.2 860.3 516.9 866.7 517.3C871.7 517.6 876.9 518.4 878.2 519C880.4 520.2 880.4 520.2 878.8 518.4C877.4 517 874.9 516.5 867.1 516C858.1 515.5 856.9 515.1 853.5 512.5C851.5 510.8 849 509.1 847.9 508.5C846.9 508 846 506.8 846 506C846 505.2 844.9 502.1 843.5 499.1C842.1 496.1 841.2 493.5 841.5 493.2C841.8 492.9 843.1 493.2 844.4 493.8C846.8 494.9 848 494.5 848 492.8C848 492.3 847.6 492.2 847 492.5C846.5 492.8 846 492.6 846 492C846 491.4 846.6 491 847.3 491.1C849.9 491.4 852 491 852 490C852 489.4 851 489 849.8 489C846.3 489 843 487.9 843 486.8C843 486.1 844.8 485.9 847.6 486.3C851.8 486.7 853.3 487.7 854.3 490.3C854.4 490.8 856.1 490.7 858 490.2C861.4 489.2 861.4 489.2 858.7 489.1C857.1 489 854.7 488.1 853.3 487C851.5 485.6 849.2 485 845.8 485C842.4 485 840.1 484.4 838 482.8C836.4 481.6 834.8 480.9 834.4 481.2C834.1 481.6 834.8 482.1 835.9 482.5C838.8 483.4 838.5 485.7 835.4 486.4C831.9 487.3 830.2 485.7 832.1 483.4C833.4 481.8 833.3 481.8 831.6 482.7C829.4 483.9 825.2 482.8 821 480C819.6 479.1 817.4 478 816 477.7C813.1 477 809.3 474.4 810 473.6C810.9 472.8 819.8 472.8 826.5 473.6C831.1 474.1 833.5 475.1 837 477.7C841.9 481.4 840.9 481.4 855.3 479.2C858.4 478.8 861.6 478.7 862.3 479.2C862.9 479.6 865.9 480 868.8 480C871.6 480 874 480.4 874 480.8C874 483.1 878.3 486 881.6 486C884.4 486 885.9 486.9 889.5 490.6C893.5 494.7 894.3 495.1 897.1 494.5C899.8 493.9 900.7 494.3 904.4 497.8C906.6 500 909.6 502 911 502.3C915 503.2 925.4 507.1 926.8 508.2C927.4 508.8 928 510.7 928 512.6C928 518.1 929.6 520.9 937 528.5C938.1 529.7 939 531.7 939 533.2C939 535.1 939.9 536.3 942.5 537.9C946.6 540.3 949.1 545.2 948.3 549.2C947.9 551.2 948.5 552.8 950.4 555C951.8 556.8 953 559.1 953 560.4C953 564 955.7 566.7 960.5 567.9C965 569 965.3 569.4 966.2 575.4C966.4 576.4 967.2 577.6 968 578C968.8 578.4 970.5 579.2 971.7 579.8C973 580.5 975.2 581 976.7 581C978.5 581 980.8 582.3 983.6 585.1C987.5 588.9 988 589.1 990.7 588.1C993.5 587.1 993.5 587.1 990.9 587.3C989.2 587.4 986.8 586.1 983.4 583.2C980.7 580.9 977.9 579.2 977.1 579.5C976.4 579.8 974 579.3 971.9 578.3C968.6 576.9 968 576.2 968 573.5C968 570.1 965.4 567 962.6 567C960.5 567 956.8 565.1 955.8 563.6C954.4 561.5 955 560 957.3 560C958.5 560 960.5 559.3 961.7 558.5C963.7 557.1 964.2 557.3 969.2 560.6C972.1 562.6 974.8 564.7 975.2 565.3C975.8 566.2 976 566.2 976 565.3C976 564.1 974.7 563 967.6 558.4C964.1 556.1 963.6 556 961.4 557.5C957.9 559.8 955.8 559.3 952.8 555.6C950.8 553.1 950 551 950 548C950 544 947.7 538 946.2 538C944.2 538 941 533.7 941 531.1C941 529.2 940.2 527.7 938.6 526.7C934.4 523.9 930 516.1 930 511.5C930 509.1 929.4 506.8 928.7 506.2C927.4 505.1 915 500.2 911.3 499.3C908.6 498.7 908.3 497.2 910.8 496.4C911.7 496.1 914 495.2 915.9 494.4C919.2 492.9 919.2 492.9 922.7 497C924.6 499.2 927.1 501 928.1 501C933.1 501 936.5 505.7 939.3 516.2C940.5 520.7 941.9 523 945.8 527C950.6 531.9 951 532 954.9 531.4C958.9 530.8 959.2 530.9 963.2 535.4C966.8 539.4 967.9 540 970.9 539.8L974.5 539.7L971.3 539.3C969.3 539 967.6 538.1 966.9 536.8C966.1 535.4 966.1 535 966.9 535.4C967.5 535.8 969.3 535.4 970.9 534.5C975.7 532.1 978.6 532.5 980 536C981.6 540 982.3 539.3 980.9 535.2C980.3 533.4 979.1 531.9 978.2 531.9C975.1 531.7 972.5 532.2 971.3 533.2C970.4 533.9 969.6 533.9 968.6 533.1C967.5 532.2 967.1 532.2 966.7 533.2C966.4 534.2 965.8 534.2 964.4 533.4C963.3 532.8 962.5 531.8 962.5 531.2C962.5 530.6 962.1 529.8 961.6 529.3C961.1 528.8 961 529 961.4 529.7C961.9 530.5 961.5 531 960.5 531C959.4 531 959 530.5 959.3 529.6C959.7 528.6 959.4 528.3 958.4 528.7C957.6 529 956.3 528.7 955.5 528C954.2 526.9 954.1 527 954.5 528.3C955.5 530.6 953.4 531.2 950.1 529.5C947.2 528 944.1 524.1 945.7 523.9C948.1 523.6 953.6 524.3 954.4 525C954.9 525.5 955.9 525.6 956.7 525.3C957.4 525 959.1 525.6 960.3 526.6L962.5 528.5L960.6 526.3C958.7 524 957.1 523.5 947.9 522.5L942.4 521.9L940.8 516.7C938.7 509.8 939.6 508.7 946.9 509.2C950.9 509.4 953.2 509 954.8 507.8C957.6 505.9 959.9 506.4 966.1 510.2C968.6 511.7 971.6 513 972.8 513C973.9 513 976.8 514.6 979.1 516.6C985.2 521.6 987.2 522.3 992.3 520.5C998 518.5 999.3 518.6 1001.8 521.3C1003.7 523.3 1003.9 524.4 1003.4 528.3C1002.8 532.5 1002.9 533 1005.1 533.8C1008.7 535.2 1019.9 537.2 1020.9 536.6C1021.4 536.3 1022.5 537.1 1023.4 538.5C1024.6 540.3 1026 541 1028.1 541C1030.8 541 1031.4 541.6 1033.5 546.5C1035.4 550.7 1036.8 552.4 1039.5 553.7C1043 555.4 1043 555.3 1045.9 552.6C1049.5 549.2 1052.3 549.7 1054.7 554.3C1055.5 556.1 1057.1 558.6 1058.1 559.9C1059.2 561.2 1060 563.1 1060 564.1C1060 565 1061.2 567.2 1062.6 568.9C1064.9 571.6 1065.6 571.9 1068.9 571.4C1071.8 570.9 1072.9 571.2 1074.4 572.9C1075.4 574 1076.6 574.7 1077.1 574.5C1077.5 574.2 1080.3 575 1083.2 576.4C1086.1 577.7 1089.8 579.2 1091.4 579.6C1093.3 580.2 1094.6 581.4 1095 583C1096.6 588.7 1101.2 596.9 1103.2 597.6C1104.4 597.9 1107.5 600.3 1110.2 602.8C1114.6 606.9 1115.3 607.2 1117.5 606.2C1120.1 605 1120 604.8 1123.7 611.5C1124.3 612.6 1125.5 613.4 1126.5 613.2C1127.5 613 1130.2 613.9 1132.6 615.2C1136.4 617.2 1137.4 617.3 1140 616.3C1143.1 615.1 1143.2 615.2 1145.1 619.3C1146.1 621.6 1147 624.9 1147 626.6C1147 630.8 1148.9 631.4 1154.2 629C1156.6 627.9 1157.8 627 1157 627.1C1156.2 627.1 1154.4 627.7 1153.1 628.4C1149.8 630.2 1148 629.4 1148 626C1148 624.4 1147.6 622 1147.1 620.7C1146.3 618.6 1146.5 618.1 1148.3 617.6C1152.8 616.4 1157.5 617 1158.7 618.9C1159.3 619.9 1161.3 621 1163 621.4C1165.3 621.8 1166.5 622.8 1167.3 624.9C1168.1 627.1 1169.2 628 1171.8 628.5C1174.3 629 1175.4 629.8 1176.1 632C1176.7 633.6 1178.2 635.6 1179.6 636.5C1181.2 637.5 1182 639 1182 640.9C1182 644.2 1185.3 652.2 1187.4 653.9C1188.4 654.8 1188.2 653.7 1186.8 650.8C1185.6 648.4 1184.5 644.6 1184.2 642.2C1183.8 638.9 1183 637.3 1180.9 635.7C1179.3 634.6 1178 632.9 1178 632C1178 629.8 1175.2 627.4 1171.8 626.6C1170 626.2 1169 625.3 1169 624.1C1169 621.8 1167.4 620.4 1163.8 619.5C1162.1 619.1 1160.8 617.8 1160.1 616C1158.7 611.9 1155.7 610.6 1149.6 611.5C1137.5 613.1 1136.4 613.1 1131.3 611.2C1127.6 609.9 1125.3 608.3 1123.7 605.9C1121.7 602.9 1120.9 602.5 1117.7 602.8C1114.6 603 1113.8 602.7 1112.9 600.7C1112.3 599.4 1110.3 597.6 1108.5 596.7C1104.1 594.6 1100.4 589.6 1099 583.7C1098.3 581.1 1097.4 578.7 1096.9 578.4C1095.9 577.8 1095.7 573.7 1096.5 572.8C1096.8 572.5 1099.4 572.7 1102.3 573.2C1105.9 573.9 1108.5 573.9 1110.6 573.1C1115.6 571.3 1118.6 573 1119.4 578C1119.8 580.4 1121.1 583.2 1122.5 584.6C1125.2 587.3 1129 587.8 1129 585.4C1129 584.6 1130.3 583.4 1132 582.9C1135.2 581.7 1135.2 580 1132 580C1130.8 580 1129.4 581.3 1128.5 583C1126.6 586.6 1126 586.7 1123.2 583.7C1120.4 580.8 1120.4 580.1 1123.3 580.6L1125.5 581.1L1123.3 580.1C1122 579.5 1121 578.4 1121 577.5C1121 575.6 1122.1 575.6 1124.5 577.4C1125.8 578.4 1127.1 578.5 1129.5 577.7C1132 577 1133.5 577.2 1136.9 579C1140 580.5 1141.5 580.9 1142.3 580.1C1142.9 579.5 1144.5 579 1145.9 578.9C1147.4 578.9 1147.9 578.6 1147.3 578.3C1145.6 577.7 1145.7 576 1147.4 576C1148.1 576 1149.5 577.1 1150.4 578.5C1152.4 581.5 1153.7 581.6 1157 578.9L1159.5 576.9L1156.3 578.5C1153.2 580 1153 579.9 1151.4 577.5C1149.4 574.4 1147.1 574.3 1143.6 577.1C1140.9 579.2 1140.8 579.2 1137 577.5C1134.7 576.5 1131.8 576 1129.9 576.2C1126.6 576.7 1122.4 575.1 1118.1 571.8C1115.4 569.8 1112 569.4 1110.3 571.1C1109.5 571.9 1107.3 571.9 1102.4 571.1C1098.2 570.5 1095.2 570.4 1094.5 571C1093.3 572 1087.7 565.3 1084.6 559.2C1083.7 557.4 1081.8 555.4 1080.5 554.8C1077.9 553.6 1077.6 552.9 1078.6 549.2C1079.4 546.4 1080.5 546.4 1082.8 549.1C1085.8 552.8 1094 560.8 1094 560C1094 559.6 1090.9 556 1087 552.1C1083.1 548.1 1080 544.5 1080 544C1080 543.5 1080.7 542.4 1081.6 541.6C1083 540.1 1083.5 540.2 1086.8 542.8C1091.3 546.4 1097 549.3 1097.8 548.6C1098.1 548.3 1097.9 548 1097.5 548C1097 548 1097.5 547.3 1098.6 546.5C1100.4 545.1 1100.3 545.1 1097.2 545.7C1094.5 546.2 1093 545.6 1088.5 542.5C1085.4 540.4 1082.4 539 1081.5 539.3C1080.7 539.7 1079.3 542.6 1078.3 546C1077.3 549.3 1076 552 1075.4 552C1074.8 552 1073.1 551 1071.6 549.9C1069.4 548.2 1068.1 547.9 1064.9 548.4C1058.9 549.4 1050.5 545.2 1048.9 540.3C1047.8 536.8 1047.8 536.8 1043 537.4C1039.4 537.9 1038 537.7 1037 536.5C1036.3 535.7 1034.3 535 1032.5 535C1029.3 535 1029.2 534.9 1029.7 531.3C1030.1 527.7 1029.9 527.2 1024.7 522.8L1019.3 518.2L1013.2 518.7C1007.7 519.2 1006.8 519 1004 516.6C1000.4 513.6 997.8 513.4 992.7 515.5C990.7 516.3 988.3 516.7 987.3 516.4C985.7 515.8 979 509.5 979 508.5C979 508.3 980.7 507.2 982.7 505.9C984.8 504.7 987.4 502.9 988.5 501.9C990.8 500 997.8 499.1 1015 498.4C1021.3 498.2 1028.7 497.5 1031.3 497C1033.9 496.4 1037.6 496 1039.4 496C1041.3 496 1043.3 495.3 1044.1 494.3C1044.9 493.4 1048.4 491.3 1052 489.7C1055.6 488.1 1060.2 485.2 1062.2 483.3L1065.9 479.7L1075.2 480.9C1080.3 481.6 1084.6 482.3 1084.8 482.5C1085.7 483.4 1090.7 480 1092 477.6C1092.9 475.8 1094.2 475 1095.9 475C1097.4 475 1099.5 474.3 1100.7 473.5C1102.4 472.3 1104.3 472.1 1109.2 472.7C1126.3 474.6 1138.8 472.6 1143.3 467.3L1146.1 464L1155.5 464.1C1160.6 464.2 1165.3 463.9 1165.9 463.6C1166.5 463.2 1169.5 463.4 1172.6 464C1178 465.1 1179 465.8 1188.2 474.2C1190.5 476.3 1192.7 478 1193.1 478C1193.5 478 1194.5 478.6 1195.2 479.3C1195.9 480 1200.1 481.5 1204.5 482.8C1214.8 485.6 1231.7 485.3 1238.4 482C1240.9 480.8 1246.1 479.7 1251.8 479.1C1258.5 478.5 1262 477.7 1263.8 476.3C1268.2 473 1271.3 471.6 1275.5 470.9L1279.5 470.3L1274.9 470.1C1271.4 470 1269.3 470.7 1265.4 473.2C1261.1 475.9 1259.2 476.4 1250 477.2C1243.4 477.8 1238.6 478.7 1237.1 479.7C1233.6 482 1211.1 481.9 1207.8 479.6C1206.6 478.7 1204.7 478 1203.7 478C1200.4 478 1194.5 474.2 1187.6 467.6C1183.7 463.9 1179.8 461 1178.6 461C1177.4 460.9 1175.4 460.3 1174.1 459.6C1172.3 458.6 1169.4 458.4 1164 458.7C1159.2 459.1 1154.9 458.8 1152.6 458C1149.4 457 1148.6 457 1147.1 458.4C1146.1 459.3 1144.6 460 1143.7 460C1142.8 460 1141.1 461.3 1139.9 463C1138.2 465.3 1136.6 466.1 1133.1 466.5C1130.6 466.8 1126.6 467.5 1124.3 468C1121.3 468.7 1119.3 468.6 1116.8 467.6C1115 466.9 1112.9 466.5 1112.1 466.8C1111.4 467 1109.1 466.7 1107 466C1103.6 464.9 1102.8 465 1099.7 466.9C1097.8 468 1095 469 1093.4 469C1089.9 469 1089 469.6 1086.6 473.3C1085.2 475.6 1084.4 476 1082.7 475.5C1081.5 475.1 1078.9 474.6 1077 474.5C1075.1 474.3 1071.9 473.8 1069.9 473.5C1065.7 472.7 1059 475.6 1056.5 479.3C1055.7 480.6 1052.7 482.3 1049.3 483.5C1046.1 484.5 1043 485.9 1042.4 486.6C1040 489.5 1035.1 490.3 1018.9 490.5C1009.7 490.6 1001.6 491.1 1000.9 491.6C1000.1 492.1 997 492.5 994 492.5C989.2 492.5 987.8 493 982.5 496.8C979.1 499.1 976.1 501 975.7 501C975.3 501 975 499.4 975 497.5C975 492.9 971.7 489.5 965.9 488C957.6 485.9 953 483.8 951 481.2C946.6 475.2 941 472 934.1 471.3C931 471 927.6 470.2 926.5 469.6C925.4 469 922.7 468 920.5 467.5C916.9 466.5 916.2 465.8 913.3 459.8C910.3 453.6 909.8 453 905.8 452C903.4 451.3 900.1 449.9 898.3 448.9C896.3 447.6 894.3 447.1 892.7 447.6C890.9 448 888.8 447.4 885.7 445.6C882.5 443.7 879.9 443 876.2 443C871.6 443 870.6 442.6 866.1 438.6C862.2 435.2 860.1 434.1 856.3 433.6C846.6 432.3 835.2 436 827.5 443.1C823 447.3 822.7 447.4 815.7 447.5C810.2 447.6 807.2 448.3 803.1 450.3C800.1 451.7 797.2 452.6 796.6 452.2C796 451.9 790.7 451.5 784.7 451.4C774.1 451.1 774 451.1 771.5 448.1C770 446.4 766.5 444.2 763.2 443C760.1 441.8 755.7 439.6 753.5 438C751.2 436.5 748.1 435 746.5 434.8C743.9 434.5 743.1 433.6 740.5 428.3C738.9 424.9 735.6 420.2 733.4 417.8C731.1 415.4 728 411 726.6 407.9C722.1 398.2 718.1 395.4 709.9 396.2C705.8 396.6 705.7 396.5 701.7 390.3C698.1 384.7 697 383.7 689.4 379.9C681.7 376.1 679.1 374 682.2 374C682.9 374 685.8 371.4 688.6 368.3L693.7 362.5L701.5 366.4C712.4 371.8 723.2 374.4 727.9 372.9C728.9 372.6 729.6 373.6 730.1 375.8C730.5 377.7 731.3 379.7 731.9 380.3C732.5 380.9 733 382.9 733 384.6C733 388.3 736.5 391.8 741.3 392.7C742.9 393 744.8 394.3 745.6 395.6C747.1 397.8 748.3 398.3 756.9 399.6C760.2 400.1 762.2 401.1 764.3 403.5C767.1 406.6 767.4 406.7 773.3 406.3C779 405.8 779.7 406 781.9 408.4C783.3 409.9 785.5 411 786.9 411C788.3 411.1 790.6 411.7 791.9 412.4C793.9 413.5 795 413.5 799 412.2C803.5 410.8 804 410.8 812.4 413.5C820.9 416.2 821.2 416.2 827.2 414.8L833.4 413.3L839.9 416.8C843.5 418.7 847.8 421.5 849.3 422.9C851.9 425.3 852.8 425.5 862 425.5C871 425.5 872.1 425.7 874.4 427.9C875.8 429.2 877.2 431.1 877.5 432C878.2 434.2 884.8 439.5 888 440.5C889.7 440.9 888.9 440.1 885.8 437.8C882.8 435.8 880.2 432.9 879 430.3C876.9 425.9 870.1 421.2 867.8 422.6C867.2 423 863.8 423.2 860.2 423.1C854.5 422.9 853.4 422.6 851.1 420.1C849.6 418.5 845.1 415.6 841 413.5L833.5 409.7L825.3 411C817.1 412.3 817.1 412.3 813.2 409.7C809.5 407.1 809.1 407 802 407.9C796.2 408.7 794.1 408.6 791.9 407.4C790.3 406.6 788.3 406 787.4 406C786.4 406 784.5 405 783.2 403.7C781.2 401.9 779.8 401.5 774.4 401.6C769.6 401.7 768 401.3 768 400.3C768 398.2 762.1 395.2 756.4 394.4C752.3 393.9 750.6 393.1 748.6 390.9C747.1 389.3 745.1 388 744.1 388C740.5 388 739.1 386.8 738.4 383.2C738.1 381.1 737.2 378.6 736.5 377.4C735.8 376.3 735 373.3 734.8 370.9L734.5 366.5L739.1 366.8C742.6 367 744.5 366.5 747.3 364.5C753.6 360.3 756.7 359 760.7 359C762.8 358.9 765.6 358.3 766.9 357.6C770 355.9 775.1 357.8 778.7 362C780.2 363.9 782.5 365.2 784.8 365.6C786.8 365.9 789.7 367 791.2 368.1C794.8 370.6 802.4 370.6 807.5 368C812.5 365.5 813 365.5 813 368.3C813 371.5 815.7 373.8 820 374.2C823.2 374.5 823.7 375 825.5 379.5C826.6 382.3 829.4 386.5 831.7 388.9C835.5 392.9 836.1 393.2 838.8 392.2C841.2 391.4 841.9 391.5 842.8 393C844.5 395.7 852.6 399.3 855.5 398.6C858.5 397.8 861 393.3 861 388.5C861 384.4 862.7 383.9 865.6 387.1C867.1 388.7 868.2 389.1 871.1 388.6C875.4 387.9 880.1 389.9 882.4 393.5C884.4 396.5 885.3 396.6 888.9 393.9C892.8 391 894.8 392.3 900.5 401.1C904.8 407.8 905.3 408.2 908.1 407.6C910.1 407.2 912.3 407.7 915.1 409.2C918.8 411.1 919.6 411.2 922.4 410.1C928.6 407.5 930.1 407.6 932.7 410.4C934.2 412.1 935.8 412.9 936.8 412.5C937.6 412.2 940.1 413.1 942.2 414.5C945.8 416.9 946.4 417 948.3 415.7C949.5 414.9 952.9 413.5 955.8 412.5C961.1 410.8 961.2 410.8 963.5 413C965.8 415.2 966.2 415.2 971.9 414C975.2 413.3 979 413 980.3 413.4C981.9 413.8 983.2 413.4 984 412.5C985.1 411.1 985.6 411.2 988.4 412.8C991.8 414.8 995 416.1 995 415.6C995 415.4 992.9 414 990.4 412.5C986.4 410.2 985.4 410 983.5 411C981.7 411.9 980.8 411.9 979.1 410.8C977.3 409.7 976.5 409.7 973.9 411.2C969.9 413.5 966.1 413.5 963.5 411C961.5 409.1 961.4 409.1 955 411.1C951.5 412.2 948 413.6 947.3 414.2C946.2 415.1 945.3 414.8 943.4 412.7C941.8 411 939.9 410 938.1 410C936.6 410 934.5 409.1 933.6 408.1C932.6 407 930.7 406 929.4 405.8L927 405.5L930.1 402.2C933.6 398.4 936.2 398.2 939.3 401.3C941.1 403 942.3 403.4 944.5 402.9C947.4 402.3 947.4 402.2 944.9 402.1C943.4 402.1 941.1 401.1 939.7 400C935.9 397 933.2 397.5 927.9 402.5C923.9 406.2 922.4 407 919.3 407C917.2 407 914.5 406.3 913.3 405.5C911.9 404.5 910.1 404.2 908.6 404.6C906.4 405.1 905.6 404.4 901.2 397.7L896.2 390.1L900.1 386C903.1 382.8 904.4 382.1 905.7 382.8C906.7 383.3 911.1 384.5 915.5 385.5C919.9 386.5 924.4 387.9 925.5 388.7C926.6 389.4 928.6 390 930 390C931.7 390 933.4 391.2 935.4 393.6C938.1 397 938.5 397.2 943.9 396.9C947 396.8 951.4 397.2 953.7 398C957.7 399.2 958.3 399.1 963.1 396.6L968.2 394L971.4 396C974.6 397.9 974.7 397.9 980.1 395.9C983.1 394.8 986.5 392.8 987.7 391.5C990.4 388.5 991.7 382.3 990.1 380.7C988.4 379 988.8 377 990.9 377C992.1 377 993.4 378.1 994.2 379.7C995.2 381.8 996.4 382.6 999 382.8C1002.8 383.2 1010.4 379.9 1011.4 377.5C1011.7 376.6 1013.3 376 1015.4 376C1017.3 376 1019.2 375.5 1019.5 375C1019.8 374.4 1021.8 374 1023.9 374C1026.9 374 1028.7 374.9 1033 378.6C1038.2 383 1038.5 383.2 1043.4 382.5C1049.5 381.8 1053.6 381.8 1061 382.4C1064.1 382.7 1067.5 382.4 1068.7 381.8C1070.4 381 1071.6 381 1073.5 381.8C1075.4 382.7 1076.7 382.6 1079.6 381.4C1084.7 379.3 1093.1 380.4 1096.1 383.6C1098.7 386.3 1100.7 386.6 1103.5 384.6C1104.6 383.9 1107.2 383 1109.3 382.6C1111.3 382.3 1114.6 381.7 1116.5 381.4C1118.5 381 1121.4 381.3 1123.1 382C1125.6 383.1 1126.3 383.1 1127 382C1127.6 380.9 1128.6 381 1131.9 382.3C1134.4 383.3 1136.1 383.6 1136.5 383C1136.8 382.4 1136.1 382 1134.8 382C1133.5 382 1131.4 381.3 1130.2 380.4C1128.4 379.2 1127.6 379.1 1126.5 380C1125.4 380.9 1124.3 380.9 1121.6 379.9C1118.9 378.9 1117.3 378.9 1114.2 379.8C1112 380.5 1108.9 381 1107.3 381C1105.6 381 1103.7 381.7 1103 382.5C1101.3 384.5 1100.8 384.4 1096.5 381C1093.2 378.4 1092 378 1086.6 378.1C1083.3 378.1 1079.6 378.5 1078.5 378.9C1077.4 379.4 1075.7 379.3 1074.6 378.8C1073.3 378.1 1070.8 378.2 1066.9 379C1061.9 380.1 1060.5 380 1056.3 378.5C1051.7 376.9 1051.2 376.9 1048.2 378.4C1043.7 380.7 1040.3 380.4 1037.7 377.4C1036.5 376 1033.6 373.7 1031.2 372.3C1027.8 370.3 1026.2 369.9 1022.7 370.4C1020.4 370.8 1016.6 371.3 1014.2 371.6C1011.5 372 1009.4 372.9 1008.7 374.1C1008.1 375.1 1007 376 1006.4 376C1005.8 376 1004.7 376.7 1004 377.5C1002.2 379.7 999.4 379.3 997.7 376.6C996.8 375.3 994.8 373.8 993.3 373.3C987.3 371.2 983 375.7 984.8 382.1C986.2 387.2 984.8 389.7 979.8 391.1C976.5 392 974.8 392 972.5 391C966.9 388.8 966.2 388.8 962.1 391.6C958 394.3 958 394.3 954 392.5C951.3 391.3 948.9 390.9 945.8 391.4C940.9 392.1 940.3 391.8 937.1 387.2C935.3 384.7 934.1 383.9 932.1 384.1C930.7 384.3 928.2 383.7 926.5 382.9C922 380.6 903.6 376.6 900.9 377.3C899.6 377.7 897.8 379.3 896.8 380.9C895.7 382.9 893.9 384.2 891.4 384.9C887.8 385.9 887.3 385.8 884.4 382.9C882.4 380.9 881 378.4 880.6 376C879.3 367.9 869.8 364.5 861 369C855.7 371.7 853.6 375 854.4 379.4C854.9 382.2 854.7 383.1 853.3 383.8C849.1 386 845.3 386.1 839.6 384C834.4 382 833.7 381.4 831.6 376.7C829 370.8 826.5 368.2 822.4 367.1C820.5 366.6 819.4 365.6 819.2 364.2C818.8 361.7 813.6 357 811.1 357C810.1 357 808.4 358.1 807.3 359.4C804.3 362.9 797.5 363.8 794.7 361.2C793.5 360.1 790.8 358.9 788.8 358.6C786.5 358.2 783.2 356.3 780.6 354.1C775.1 349.3 770.3 348.3 764.1 350.5C761.7 351.3 758.1 352 756.1 352C753.6 352 750.8 353.1 747.2 355.5C742.5 358.5 741.4 358.9 737.5 358.3C734.2 357.9 732.4 358.2 730.5 359.4L727.9 361.1L726 356.6C724 352.1 715.5 343.1 712 341.8C710.5 341.3 710.3 340.4 710.7 337.2C711 334.9 710.7 332.3 709.9 330.8C708.2 327.6 696.1 318.3 692.6 317.4C691.2 317.1 690 316.5 690 316C690 315 701.9 315.7 703.3 316.8C704 317.3 706.8 318.5 709.7 319.4C712.5 320.4 715.4 321.8 716 322.6C717.5 324.3 725.2 324.5 728.1 322.9C731 321.4 733.3 323.6 732.7 327.3C732.4 329.7 732.8 330.5 735.4 332.1C737.1 333.1 739.7 334 741.2 334C742.7 334 744.2 334.5 744.5 335C744.8 335.5 746.1 336 747.4 336C748.6 336 750.7 337.2 752.1 338.6C754.1 340.8 755.1 341.1 758.4 340.7C760.5 340.4 764.5 339 767.3 337.6C770.3 336 773.1 335.2 774.4 335.5C776.1 336 776.2 335.9 775 335C773.7 334.1 773.8 333.8 775.4 332.5C776.5 331.7 777.9 331 778.4 331C780.4 331 783.9 337.8 784.6 342.9C785 345.8 786 348.6 787.1 349.6C788.7 351.1 789.1 351.1 791.9 349.4C793.6 348.4 795 347.2 795 346.7C795 346.2 795.5 346 796.1 346.2C796.7 346.4 797.1 346.9 797 347.4C796.7 348.8 799.2 350 802.3 350C804.6 350 805.4 349.3 807 345.5C809.1 340.5 811.1 339.8 813.4 343.2C814.3 344.4 815 345.1 815 344.6C815 344.2 814.1 342.5 812.9 340.9C811.4 338.8 810 338 807.9 338C804.6 338 798.8 335.3 795 332C793 330.2 791.7 329.9 788.3 330.4C784.6 330.9 783.7 330.6 780.8 328C777 324.5 777.4 324.4 784.6 326.7C789.4 328.2 790.2 328.2 794.2 326.8C796.6 325.9 801.2 324.7 804.5 324.1C814.4 322.3 814.7 322.2 811.6 322.1C807.2 321.9 795.9 324.1 792.7 325.7C790.2 326.9 789.3 326.9 783.7 324.9C780.1 323.6 776 321.3 774 319.3C770.6 316 770.5 315.9 772.5 314.4C774 313.3 775.8 313.1 780 313.7C784.8 314.4 788.4 314.4 794.8 314C798.4 313.7 805.6 315.3 807.2 316.8C808.2 317.6 809.6 318 810.4 317.7C811.2 317.4 813.9 317.8 816.6 318.6C822.1 320.2 827.4 320.4 829.9 319C831.2 318.3 832.8 318.6 835.6 320C837.7 321.1 840.8 322 842.5 322C844.1 322 847.2 322.5 849.3 323.1C852.9 324.1 853.4 323.9 857 320.8C861.9 316.6 862.2 314.9 857.3 318.6C853.5 321.5 850.9 321.9 843.3 320.5C838.8 319.7 837.9 318.7 840.6 317.6C841.5 317.2 842 316.7 841.7 316.4C841.4 316.1 840.2 316.4 839 317C837.2 318 836.1 317.9 833.4 316.4C831.5 315.4 830 314.3 830 313.9C830 312.3 825.9 312.4 822.3 314C818.8 315.5 818 315.6 815.7 314.3C813.6 313.3 812.5 313.2 810.9 314C809.3 314.9 808.6 314.8 807.7 313.7C806.5 312.2 800.2 310.9 794.8 311C793.2 311 790.8 311 789.3 311C786.7 311.1 778.6 310.1 767.9 308.5C764.6 308 762.5 308.2 760.2 309.4C756.2 311.5 756.5 311.6 754.2 307.6L752.2 304.3L741.9 303.4C736.2 303 731.1 302.7 730.5 302.7C726.8 303.3 720.4 305.3 719.3 306.2C718.6 306.7 716.9 306.9 715.5 306.6C712.6 305.9 705.3 307.6 703 309.6C701.3 311.1 691.4 310.6 686.8 308.8C684.6 308 683.5 308.1 681.7 309.3C679.5 310.7 679.1 310.7 676.8 309.2C675.4 308.3 672.8 306 671.1 304.1C668.4 301.2 667.6 300.9 665.2 301.6C663.7 302.1 659.8 302.5 656.6 302.4C651.6 302.4 650.4 302 649.1 300.1C644.9 293.9 633.7 285.3 627.7 283.5C623.5 282.3 621.9 280.6 617.8 273.1C616.8 271.4 615.3 270 614.2 270C613.2 270 609.9 272 606.9 274.5C603.9 276.9 600.2 280 598.5 281.3C596.9 282.6 593.8 284 591.8 284.4C588.7 285 588.1 284.8 587.5 283.1C586.6 280.3 584.4 278.7 580.2 278.1L576.5 277.5L576.4 271.6C576.3 266.7 575.9 265.4 574.1 263.8C571.2 261.5 563.8 261.4 560.4 263.7C557.9 265.3 557.8 265.3 551.3 258.5C545.2 252.1 544.5 251.7 540.1 251.5C537.6 251.4 534.2 250.8 532.5 250.1C530.3 249.2 528.5 249.2 524.8 250.1C520.7 251 519.6 251 517.5 249.6C516.2 248.7 514.6 248 513.9 248C513.3 248 508.2 251.2 502.7 255.1C495.1 260.4 492.2 262 491 261.3C490.2 260.8 487.7 256.9 485.6 252.6C482.2 245.9 480.8 244.2 476.3 241.4C472.7 239 470.8 237.1 470.4 235.2C469.3 230 468.2 228.3 464.5 226.5C459.2 224 451.7 224.8 446.3 228.4C442.5 230.9 441.1 231.2 431.8 231.5C426.1 231.7 421.2 231.9 420.8 231.9C420.5 232 418.8 233.2 417.1 234.6L414 237.2L410.6 235.1C405.2 231.7 377.8 221.2 372.4 220.5C369.7 220.1 366.7 219.3 365.6 218.8C363.9 217.9 364 217.7 366.6 215.9C368.2 214.9 370.6 214 371.9 214C373.3 214 376.2 212.8 378.3 211.3C380.5 209.8 383.9 208 385.9 207.3C389 206.2 389.9 206.3 392.8 208C396.8 210.4 398.2 210.5 401.9 208.6C404.5 207.2 405.1 207.3 410.6 210C413.8 211.6 419.1 213.4 422.4 214.1C428.2 215.4 428.3 215.4 430.2 212.7C431.3 211.2 433.9 209.1 435.9 208.1C439.4 206.3 439.7 206.3 442 207.9C443.4 208.9 446.3 210.3 448.5 211.1C452.2 212.5 452.9 212.5 459 210.3C463.6 208.7 464.7 208 462.8 208C459.7 208 459.5 207.7 461 204.9C461.7 203.8 463.1 203 464.8 203C466.3 203 468.6 202.3 470 201.5C475 198.6 475.2 198.6 477.3 201.4C478.8 203.5 479.8 204 481.9 203.5C484.2 203 485.2 203.8 490.6 210.3C497.2 218.1 500.7 220 508.7 220C511 220 514.4 220.7 516.3 221.5C518.8 222.5 522 222.8 526.9 222.5C533.7 222 534.1 222.2 543.6 227C549 229.8 554.3 232 555.3 232C556.4 232 559 233.6 561.1 235.5C564.3 238.4 565.7 239 569.3 238.9C575.5 238.8 578.5 237.7 578.8 235.5C579 233.7 579 233.7 578 235.2C576.2 238 569.6 238.5 564.6 236C560.5 234.1 558.2 231.4 559.5 230.2C559.8 229.9 560.6 230.2 561.2 230.8C561.9 231.5 562.9 232 563.5 232C564 232 563.7 231.3 562.7 230.6C561.5 229.7 559.5 229.4 556.9 229.7C553.5 230.2 551.6 229.6 545.4 226.4C541.4 224.3 538.2 222.1 538.3 221.5C538.5 221 540.4 220 542.5 219.4C545.5 218.6 546.7 217.6 547.7 215.2C549.3 211.4 551.4 211.1 553.5 214.4C554.7 216.2 556.2 216.9 560.3 217.3C563.2 217.6 566 217.4 566.5 217C567.1 216.5 570.2 215.3 573.5 214.1L579.5 212.1L584 217C588.5 222 592.2 224.1 596.3 223.9C598.8 223.8 598.2 223.5 592.2 222C588.8 221.1 587.2 219.9 584.4 216C580.4 210.4 579.3 210.1 572 213C569.1 214.1 564.6 215 561.4 215C556.6 215 555.8 214.7 554.8 212.5C554.2 211.1 552.9 210 551.8 210C550.8 210 550 209.5 550 209C550 207 553 206.8 557 208.4C559.2 209.3 562.3 210 563.8 210C565.9 209.9 565.3 209.5 561.2 208.1C558.4 207.1 555 205.4 553.8 204.4C552.6 203.4 552 203 552.3 203.6C552.7 204.3 551.3 205.9 549.2 207.4C544.4 210.7 542.3 210.8 545.5 207.5C546.9 206.2 548 204.6 548 204C548 203.5 548.7 203 549.6 203C550.4 203 550.8 202.5 550.5 202C549.4 200.3 548.2 200.9 546.8 203.7C546 205.5 543.4 207.5 540 209.3L534.5 212L529.4 210.1C523.5 207.8 517.4 202.8 515.4 198.5C514.6 196.8 512.7 193.5 511.2 191C508.5 186.6 508.2 186.5 502.9 186.2C494.8 185.9 493 185.3 493.7 183.3C494.2 182.1 493.8 182.2 492.2 183.8C491 185 489 186.2 487.8 186.5C486.5 186.8 483.7 187.4 481.5 188C477.5 189 477.5 189 482.6 188.5C487 188.2 488.1 188.5 490 190.5C493.2 193.9 492.2 196 486.2 198.2C480.8 200.2 480.8 200.2 478.7 198.2C477.5 197.1 475.5 196 474.3 195.8C472.2 195.5 472.2 195.5 474 191.7C476.1 187.3 474.7 187.7 472.4 192.1C471.6 193.8 470.3 194.9 469.6 194.7C468 194.1 462 196.6 462 197.9C462 198.4 460.5 199.1 458.8 199.5C457 199.9 454.5 200.9 453.2 201.7C451.3 202.9 450.6 202.9 449.3 201.8C448.2 201 443.5 200.5 434.4 200.3C427 200.1 419.5 199.9 417.8 199.8C411.7 199.6 404.1 201.2 402.4 203.1C400.3 205.4 396.9 205.5 392.8 203.4C390.2 202 389.1 202 385.3 203.1C382.8 203.7 379.2 205.4 377.3 206.7C375.4 208 372.4 209.4 370.6 209.7C368.9 210 366.4 210.9 365.2 211.7C363.3 212.9 362.3 212.9 359.9 212C357.7 211.1 356.3 211 354.3 211.9C348.3 214.2 344.5 213.7 340.1 209.7C337.8 207.7 335.4 206 334.6 206C333.8 206 330.3 204.7 326.8 203C320 199.8 317.1 199.4 312.2 201.1C309.5 202 308.5 201.9 305.8 200.2C304 199.1 300.5 197.9 298.1 197.5C295.6 197.1 291.2 195.9 288.1 194.9C285.1 193.8 281.2 193 279.3 193C277.4 193 274.1 192.1 271.8 190.9C268.1 189 267.2 188.9 263.6 190C261.3 190.7 258.3 191.9 256.8 192.6C254.4 193.9 253.7 193.9 251.1 192.5C249.4 191.7 246.7 191 245 191C241.9 191 240.8 190.3 231.8 183.2C229.5 181.3 224.9 178.5 221.6 176.8C218.2 175.1 214.1 172.7 212.5 171.4C205.1 165.8 194 163.3 188.8 166.1C187.1 167 186.3 166.7 183.6 164.3C181.9 162.7 178.1 159.6 175.2 157.6C172.3 155.5 167.9 150.9 165.3 147.1C157.8 136.4 156.2 135 151.6 134.9C145.3 134.9 139.7 132 135.1 126.7C132.8 124 131 121.3 131 120.6C131 118.5 126.8 108.7 125.1 106.6C124.2 105.6 121.3 103.7 118.5 102.4C115.8 101.2 112.3 98.8 110.8 97.2C108.4 94.6 108 93.3 108 88.5C108 80.7 106 77 97.3 69.2C93.2 65.5 88.9 60.8 87.9 58.8C86.7 56.5 83.8 53.6 80.3 51.3C75.1 47.9 74.5 47 73.8 43C72.9 37.9 68.8 32.3 64.2 30.1C62.4 29.1 60 26.6 58.5 23.8C57.1 21.1 54.9 18.5 53.7 17.9C52.5 17.2 50.4 15.4 49 13.8C47 11.4 45.3 10.7 40 9.99999C36.4 9.49999 31.1 8.99999 28.2 8.99999C23.8 8.99999 22.4 8.49999 20.3 6.39999C14.4 0.49999 7.7 -1.60001 3.9 1.29999ZM201.5 178.4C204.3 179.7 207.6 181.9 208.9 183.3C210.2 184.7 212.7 186.2 214.4 186.6C218.3 187.4 223.2 190.3 224.7 192.8C225.7 194.4 224.6 194.2 218.2 191.4C212.6 189 209 188 205.1 188C200.4 188 199.3 187.6 195.9 184.5C193.7 182.6 191.5 181 191 181C189.1 181 190 177.9 192.3 177C195.5 175.7 196 175.8 201.5 178.4ZM501.6 189C505.7 189 507.2 189.4 507.7 190.6C510.4 197.8 521.9 210.6 526.4 211.6C531.6 212.7 533.3 213.9 531.9 215.6C530.2 217.7 527.6 217.3 525.1 214.4C523.4 212.4 522.3 212 520.4 212.4C519.1 212.8 517 212.5 515.9 211.9C514.2 211 513.4 211.2 511.5 213C509.8 214.6 508.4 215.1 506.6 214.6C505.2 214.3 503 214.5 501.6 215.1C499.2 216.2 498.7 215.9 494.3 211C486.9 202.9 485.8 200 490 200C491.1 200 492.7 198.9 493.6 197.5C495.2 195.1 495.1 193.7 493.4 189.6C492.8 188 493 187.8 494.4 188.3C495.4 188.7 498.6 189 501.6 189ZM470 197.4C468 199.3 463 200.6 463 199.2C463 197.7 466.1 196.1 469 196C471.1 196 471.2 196.2 470 197.4ZM235.5 200C238.3 201.6 241.3 203 242.3 203C243.3 203 245.4 204 246.9 205.1L249.8 207.2L257.9 204.5C265.9 201.9 266.1 201.9 270.5 203.5C273.5 204.7 276.3 205.1 279 204.6C281.8 204.2 284 204.5 286 205.5C287.6 206.3 291.3 207.5 294.2 208.1C297.1 208.7 301.2 210.3 303.4 211.7C306.3 213.6 308 214 310.4 213.5C318.1 212 320.1 211.9 323.4 213C325.4 213.6 327 214.6 327 215C327 215.5 326.3 215.7 325.6 215.4C324.8 215.1 321.7 215.5 318.6 216.4C311.6 218.5 310.3 218.4 307.3 216C304 213.4 300 213.5 294.7 216.1C288.8 219.2 279.3 218.9 274.1 215.4C272 214.1 267.8 212.4 264.8 211.8C260 210.8 258.3 210.9 253.3 212.4C247.5 214.2 247.4 214.2 244 212.1C240.5 210.1 228.1 197 229.7 197C230.1 197 232.8 198.4 235.5 200ZM425.1 204C426.2 204 427 204.4 427 205C427 206.1 416.2 206.4 413.5 205.4C410.4 204.2 414.2 202.9 418.9 203.5C421.3 203.8 424.1 204 425.1 204ZM460 204C460 205.3 454.8 210 453.3 210C451.2 210 451.8 206.4 454.3 204.7C456.8 202.9 460 202.5 460 204ZM437 204.9C437 205.4 435.7 206.3 434 207C432.4 207.7 430.4 209.3 429.5 210.7C428.1 212.8 427.3 213.1 424.7 212.5C422.9 212.2 420.2 211.7 418.6 211.5C415.7 211.1 411.7 208.8 409 206.1C407.7 204.8 407.7 204.7 409.5 205.4C411.4 206.1 422 207.9 424.7 208C425.3 208 426.5 207.4 427.3 206.6C428.1 205.8 430.2 205 432.1 204.7C434 204.5 435.8 204.2 436.3 204.2C436.7 204.1 437 204.4 437 204.9ZM445 204.4C445 204.7 444.6 205.2 444 205.5C443.5 205.8 443 205.6 443 205.1C443 204.5 443.5 204 444 204C444.6 204 445 204.2 445 204.4ZM450 207.5C451.1 208.8 450.8 209 448.7 209C446.1 209 444.5 207.8 445.7 206.6C446.8 205.5 448.7 205.9 450 207.5ZM545.8 216.5C543.6 218.6 538.4 219.9 534.2 219.3L530.3 218.8L532.4 216.6C533.6 215.4 535.3 214.6 536.3 214.8C537.3 215.1 538.8 214.6 539.8 213.7C542.5 211.3 546.4 211.1 546.8 213.4C547 214.4 546.6 215.8 545.8 216.5ZM515 213C515 213.5 514.6 214 514 214C513.5 214 513 213.5 513 213C513 212.4 513.5 212 514 212C514.6 212 515 212.4 515 213ZM524.1 215.9C528.8 219.7 522.5 221.7 514.7 218.9C508.9 216.7 510.6 215.4 520.6 214.1C521.3 214.1 522.8 214.9 524.1 215.9ZM509 217C509 217.5 508.1 218 507.1 218C506 218 504.8 217.5 504.5 217C504.1 216.4 505 216 506.4 216C507.8 216 509 216.4 509 217ZM333.5 218.1C334.7 220 333 220.4 331.3 218.7C329.7 217.1 329.7 217 331.2 217C332.1 217 333.2 217.5 333.5 218.1ZM459.5 243C461.4 246.8 463.2 248.7 467 250.8C471.3 253.1 472.3 254.4 475 260.3C476.6 264 478 267.4 478 267.9C478 270.2 464.3 270.7 457.5 268.6L453.5 267.4L453.8 262.1C454.2 257 454.1 256.7 449.6 252.4C445.3 248.3 444.6 248 439.5 248C436.5 248 433 248.5 431.6 249.1C428.6 250.5 423.9 249.5 424.6 247.7C424.9 246.9 429 246 435.7 245.2C445.5 244 452.9 241.6 454.5 239C455.7 237 457 238.1 459.5 243ZM398.7 246C399.5 246 399.8 246.4 399.5 247C398.3 248.9 396.1 248 393.8 244.7L391.5 241.5L394.4 243.7C396 245 397.9 246 398.7 246ZM532.6 260.1C534 261.7 535.2 262 537.6 261.5C540.2 261.1 541.3 261.5 543.7 263.7C549.8 269.5 556.4 274 558.7 274C560.1 274 562.3 273.1 563.7 272C566.8 269.6 568 270.2 568 274C568 280.6 572.5 287 577.2 287C579 287 580.5 287.8 581.5 289.4C584.9 294.5 595.6 293.8 602.6 288.1C612.3 280.1 613.1 279.6 614.1 281.1C614.6 281.9 615 283 615 283.7C615 285.7 621.1 290 624 290C625.9 290 628.1 291.2 630.5 293.4C632.5 295.3 635.4 297.3 636.8 297.8C638.9 298.5 639.6 299.5 640.1 302.3C640.8 307 640.9 307.1 646.7 308.1C649.3 308.6 653.1 310.1 655.2 311.5C657.3 312.9 659.5 314 660.1 314C660.8 314 663.8 315.2 666.8 316.7C670.7 318.6 673.7 319.3 677.4 319.3C680.6 319.2 683.4 319.8 685 320.8C686.4 321.7 688.9 322.9 690.5 323.5C692.2 324.1 696.2 326.6 699.3 328.9L705 333.3L704.4 338.2C703.8 342.4 704 343.4 706 345.5C707.3 346.9 708.8 348 709.4 348C711.6 348 719 355.6 721.5 360.4C724.2 365.7 724.2 366.7 721.3 365.2C720.3 364.7 717.7 363.9 715.6 363.6C713.4 363.2 707.7 360.8 702.8 358.4C692.5 353.1 688.3 352.8 686.2 357.2C685.5 358.8 684 360.4 683 361C681.4 361.9 681 361.7 680.4 359.6C679.7 356.6 677.2 354.3 671.2 351C668.3 349.5 665.4 346.7 663.5 343.9C661.9 341.4 657.3 336.1 653.3 332.2L646.1 325H639.7C635.1 325 632.9 324.6 632 323.4C629.7 320.7 627.4 320 624.4 321.2C621.9 322.1 620.4 321.8 614.6 319.5C608.5 317.1 607 316.8 602.6 317.6C599.5 318.2 596 318.2 593.7 317.6C590.6 316.8 588.7 317 584.8 318.4C580.8 319.8 578.3 320 572.8 319.5C565.9 318.8 565.8 318.7 564.4 315.1C563.6 313.1 562.6 310.8 562.2 310C561.2 308.3 551.3 303 548.9 303C548 303 546.5 302 545.7 300.7C543.6 297.4 531.9 291.5 522.5 288.9C513 286.4 512.6 286 509.4 279.9C508.1 277.2 505.4 273.8 503.5 272.3C501.6 270.8 500 268.9 500 268.3C500 267.6 502.3 265.9 505 264.5C507.8 263.1 510.3 261.3 510.7 260.5C511.3 258.8 514.6 258.5 515.5 260C516.4 261.4 520.1 261.2 523 259.5C526.6 257.5 530.4 257.7 532.6 260.1ZM743.9 308C748.8 311 752 315 748.3 313.5C742.5 311.1 735.1 309.9 730.3 310.5C725.9 311 724.8 310.8 723.1 309.1L721 307L723.3 306.5C724.5 306.2 728 305.9 731 305.7C734 305.5 737.1 305.3 737.7 305.2C738.4 305.1 741.2 306.4 743.9 308ZM750.2 306C751.2 306 752.7 307.4 753.5 309C754.9 311.7 754.9 312.1 753.5 312.6C752.6 313 750.6 311.9 748.5 310.1C746.5 308.4 744.5 307 743.9 307C743.3 307 743.2 306.5 743.6 305.9C743.9 305.3 745.2 305.1 746.4 305.4C747.5 305.7 749.3 306 750.2 306ZM669 309.1C669 309.6 668.1 309.5 667.1 308.8C666 308.1 665.4 307.2 665.7 306.8C666.2 305.8 669 307.8 669 309.1ZM721.3 313.5C721.9 314.6 724.2 314.9 730.8 314.8C737.9 314.7 741 315.1 747.8 317.4C752.3 318.9 758.4 320.4 761.3 320.7C764.1 321.1 767 322 767.6 322.8C768.2 323.7 769.4 324.1 770.4 323.7C771.5 323.3 773.1 324 775 325.9C776.7 327.4 778 328.9 778 329.2C778 329.5 776.2 330.5 774 331.5C771.1 332.8 768.7 333.1 765.1 332.7C760.6 332.2 760 332.3 758.5 334.6L756.9 337.1L750.5 333.5C745.9 331 743.4 330.1 741.6 330.6C737.8 331.5 735 329.5 735 325.6C735 323.6 734.2 321.6 733 320.5C731.2 318.9 730.5 318.8 727.6 319.8C723.1 321.5 720.6 321.3 716.8 319.1C715 318.1 712.1 316.9 710.3 316.5C706.6 315.8 704 313.3 706.1 312.6C706.9 312.4 708.2 311.9 709 311.6C711.6 310.7 720.5 312.1 721.3 313.5ZM762.4 313.5C762 314.3 761.1 315 760.3 315C759 315 759 314.7 760 313.5C760.7 312.7 761.6 312 762.1 312C762.6 312 762.7 312.7 762.4 313.5ZM771.2 313.2C770.3 314.1 769.7 314.1 768.8 313.2C767.9 312.3 768.1 312 770 312C771.9 312 772.1 312.3 771.2 313.2ZM766 315C766 315.5 765.5 316 764.9 316C764.4 316 764.2 315.5 764.5 315C764.8 314.4 765.3 314 765.6 314C765.8 314 766 314.4 766 315ZM830 316.4C830 317.5 828.1 317.9 827.5 317C827.2 316.5 827.6 316 828.4 316C829.3 316 830 316.2 830 316.4ZM769.9 318.6C771.6 319.8 771.9 320.5 771 321.4C770.2 322.2 769.5 322.1 768.6 320.7C767.9 319.8 766.3 319 765.1 319C763.9 319 763.2 318.6 763.5 318C764.4 316.5 767.3 316.8 769.9 318.6ZM794.7 333.3C796.2 334.5 798.9 336.2 800.5 336.9C803.3 338.1 803.3 338.3 801.5 339C800.4 339.5 797 339.6 794 339.3C789.4 338.9 788 338.3 785.7 335.7L782.9 332.5L786.2 331.9C791.6 330.9 791.7 330.9 794.7 333.3ZM644 336C645.2 337.6 646.7 339 647.3 339C648.8 339 656 346.3 656 347.9C656 348.5 654.9 349 653.5 349C651.6 349 650.3 347.9 648 344.2C646.3 341.6 643.3 338 641.3 336.3C637.9 333.4 637.8 333 639.7 333C641 333 642.7 334.2 644 336ZM766.7 334C768.8 334 769 334.3 768.1 335.4C767 336.7 764.1 337.6 757.5 338.5C755.9 338.7 755.3 338.7 756.2 338.4C757.1 338.1 758.6 336.7 759.5 335.4C760.5 333.8 761.7 333.1 762.7 333.4C763.5 333.7 765.3 334 766.7 334ZM799.5 341.1C800 340.6 802.6 340 805.3 339.7L810 339L808.2 341.8C807.2 343.3 806 345.4 805.4 346.4C803.9 349.2 802.7 349.3 800 347C797.1 344.4 795.6 344.5 792 347.2C788.4 349.8 787.5 349.1 786.5 343.4L785.9 339.3L792.1 340.6C795.6 341.3 798.9 341.5 799.5 341.1ZM873.5 374.7C874.5 375.6 875 377.3 874.7 378.6C874.4 380.1 875.1 381.7 876.6 383.1C879.2 385.5 880 388 877.5 386C876.6 385.2 874.7 385 872 385.5C869.3 386 868 385.8 868 385C868 384.4 866.4 383.2 864.5 382.4C861.6 381.2 861 380.4 861 378.1C861 375.8 861.6 374.9 863.8 374.2C867.9 372.6 871.7 372.8 873.5 374.7ZM855 389.5C855 392.4 855.1 392.4 851.3 390.9C848.6 389.9 848.6 389.8 850.4 388.4C853.3 386.3 855 386.7 855 389.5ZM886 392C886 392.5 885.6 393 885 393C884.5 393 884 392.5 884 392C884 391.4 884.5 391 885 391C885.6 391 886 391.4 886 392ZM977.7 411.6C977.4 411.9 976.5 412 975.8 411.7C975 411.4 975.3 411.1 976.4 411.1C977.5 411 978.1 411.3 977.7 411.6ZM861.8 447C865.5 449.2 873 452.4 878.5 454.1C894.2 459 900 462.8 900 468.2C900 470.2 901.6 472.8 905.6 477.3C908.7 480.7 912.4 484.8 913.7 486.3C915.1 487.8 917.9 489.7 919.8 490.6C924.4 492.5 933.6 493.4 937.4 492.2C939.6 491.6 941.3 491.9 943.9 493.2C945.8 494.2 948.4 495 949.5 495C951.5 495 954.3 497.9 956.9 502.8C958 504.8 957.8 505.1 955.3 506.2C953.8 506.9 950 507.4 947 507.5C944 507.5 940.7 507.9 939.8 508.4C938.4 509 938 508.8 938 507.5C938 505.2 931.7 499 929.3 499C928.2 499 925.9 497.4 924 495.5C920.3 491.6 918 491.3 912.7 493.5C908.9 495.1 906.9 494.7 903.2 491.9C901.6 490.7 899.9 490.3 897.1 490.7C893.7 491.2 893.1 490.9 891.1 488.1C889.6 486 887.3 484.6 884.1 483.6C881.4 482.8 878.1 481 876.7 479.6C874.6 477.5 873.1 477 869.2 477C866.6 477 863.5 476.4 862.5 475.6C861.1 474.6 860 474.5 858.7 475.1C857.7 475.7 856.1 475.8 855 475.5C853.9 475.2 851.6 475.6 849.8 476.4C845.1 478.6 841.7 477.8 837.1 473.7C833.7 470.7 832.5 470.2 828.1 470.2C825.4 470.1 822.1 469.6 821 469C819.4 468.2 818 468.2 815.4 469C812.1 470.1 811.6 470 809.1 467.6C806 464.6 802.3 464.3 797.9 466.6C795 468.1 794.8 468 792 465L789.1 461.9L795 462.6C800.5 463.2 801.3 463 806 460C811.4 456.6 812 456.5 824.7 458.6C828.9 459.2 829 459.2 830.5 455.7C832.2 451.6 838.3 446.1 843.1 444.4C849.7 442 854.6 442.7 861.8 447ZM781.5 464C777.9 466.9 777.1 466.9 774.1 464.6C773.1 463.8 773.5 463.3 776.1 462.4C778 461.7 780.8 461.1 782.4 461.1L785.3 461L781.5 464ZM790 465.5C791.8 467.7 790.6 468.4 785.4 468.5C780.5 468.5 780.6 468.6 782 465.9C783.3 463.6 788.2 463.3 790 465.5ZM917.6 472.5C919.2 472.9 922 473.9 923.9 474.7C925.8 475.5 929.5 476.4 932.2 476.5C935.2 476.7 938.3 477.5 939.8 478.7C941.3 479.8 943.3 480.9 944.3 481.3C945.2 481.6 946 482.6 946 483.5C946 484.7 945.6 484.8 944.2 484.1C943.2 483.6 938.8 483.4 934.3 483.7C926.5 484.3 920 483 920 481C920 480.6 918.5 478.7 916.8 476.8C910.6 470.1 908 466.8 908 465.7C908 465.1 909.5 466.2 911.3 468.2C913.2 470.2 916 472.2 917.6 472.5ZM804.4 468.6C806.6 469.5 806.4 471 804.1 471C802 471 800.7 469.7 801.7 468.6C802.5 467.9 802.5 467.9 804.4 468.6ZM804.6 473C806.5 473.1 808.1 473.9 809.3 475.5C811.5 478.5 809.7 478.9 806 476.3C804.7 475.4 802.2 474.7 800.5 474.8C798.9 474.9 796.8 474.6 796 474C794.7 473.1 794.8 472.8 796.4 471.5C798.1 470.2 798.6 470.2 800 471.5C800.9 472.3 803 473 804.6 473ZM791.4 473.1C790.8 474.2 787.3 474.2 784.5 473.1C783.2 472.6 784 472.3 787.3 472.3C789.9 472.2 791.8 472.6 791.4 473.1ZM805.6 477.5C806.5 478.3 808.9 479 811.1 479C814.3 479 815.9 479.7 819.5 483.1C822 485.4 824.3 488.5 824.7 489.9C825 491.3 825.9 493.4 826.7 494.6C828.3 497.2 827.6 498 823.3 498C820.2 498 820 497.8 820 494.5C820 489 817.5 486 813 486C807.2 486 804.2 484.5 803.4 481.3C803 479.8 802.3 477.9 801.7 477.2C800.3 475.4 803.8 475.6 805.6 477.5ZM800.4 479.2C802.2 481.8 801.1 483.5 798.2 482.6C795.5 481.7 794.6 477 797.1 477C798.1 477 799.6 478 800.4 479.2ZM828.8 485.5C831.3 487.6 832.4 487.9 836.1 487.4C840 486.9 840.8 487.1 843 489.5L845.5 492.2L839.9 491.5C836.8 491.1 832.6 490.8 830.6 490.7C827.3 490.6 826.6 490.1 824.9 486.8C822.5 482.2 824.2 481.6 828.8 485.5ZM816.3 488.7C817.9 490.6 818.3 492.1 818.1 495.9C818 498.3 818 498.3 816.5 496.4C815.7 495.4 815 493.9 815 493.1C815 492.3 814.3 491.2 813.3 490.5C812.4 489.8 812 488.8 812.4 488.2C813.4 486.5 814.4 486.7 816.3 488.7ZM831.3 493.6C830.9 494.6 830.4 494.8 829.8 494.2C828.6 493 829.7 490.7 831 491.5C831.5 491.8 831.6 492.8 831.3 493.6ZM837.7 493.9C837.4 495.1 837.8 495.7 838.7 495.6C839.6 495.6 840.6 496.2 841 497C845.1 505 844.9 507 840.3 503.8C836.9 501.4 836.6 500.9 835.5 495.2C835 492.6 835.2 492 836.5 492C837.7 492 838.1 492.6 837.7 493.9ZM965.7 493C967.8 493 970 496.1 970 499.1C970 503.6 966.1 502.7 963.7 497.7C962.8 495.7 961.5 494 961 494C960.4 494 960 493.5 960 492.9C960 492.2 960.9 492 962.3 492.4C963.5 492.7 965 493 965.7 493ZM833.6 496.7C832.5 497.8 831.7 496.1 832.5 494.3C833.3 492.6 833.3 492.6 833.7 494.3C834 495.3 833.9 496.4 833.6 496.7ZM835 499.5C835 500.4 834.4 500.7 833.5 500.4C832.7 500 832 499.4 832 498.9C832 498.4 832.7 498 833.5 498C834.3 498 835 498.7 835 499.5ZM827.4 499.6C828.3 499.9 829 501 829 501.9C829 503.2 828.2 503.5 824.8 503.2C820.9 502.8 819.1 501.7 819 499.7C819 498.9 825.2 498.7 827.4 499.6ZM1027 531.1C1027 532.5 1026.3 532.7 1022.8 532.3C1020.4 532.1 1017.8 531.6 1017 531.3C1015.6 530.8 1014.5 530.6 1009.1 530.2C1007.2 530 1007 529.7 1008 528.6C1008.6 527.8 1009 526.1 1008.8 524.8C1008.5 522.8 1008.9 522.5 1011.3 522.8C1012.8 523 1014.8 522.7 1015.7 522.1C1017 521.4 1018.5 522.1 1022.2 525.3C1024.8 527.5 1027 530.1 1027 531.1ZM1036.2 541.1C1037.3 541.7 1039.7 542.2 1041.6 542.2C1044 542.2 1045.1 542.7 1045.5 544.1C1045.9 545.1 1046.6 546 1047.3 546C1047.9 546 1047.1 547.3 1045.5 549C1042 552.6 1040.4 552 1036.1 545C1032.9 539.7 1032.9 539.3 1036.2 541.1ZM864.9 551.9C866.2 552.9 866.8 554 866.3 554.3C865.2 555 861 552.4 861 550.9C861 549.5 862.2 549.8 864.9 551.9ZM1064 552.5C1067 551.8 1073 554.4 1073 556.3C1073 556.9 1072 558.8 1070.9 560.7C1067.4 566.3 1062.1 567.2 1062 562.2C1062 561.5 1060.9 559.2 1059.5 557.2C1056.3 552.6 1056.2 550.5 1059.1 552C1060.2 552.6 1062.4 552.8 1064 552.5ZM1080.6 560.5C1084.4 564.6 1091.5 575.9 1090.7 576.7C1090.3 577 1085.8 575.2 1080.6 572.6C1073.2 569 1070.5 568.2 1068.1 568.6C1064.6 569.3 1063.7 567.5 1067 566.5C1068.1 566.2 1070.4 563.9 1072 561.4C1073.7 559 1075.6 557 1076.2 557C1076.8 557 1078.7 558.6 1080.6 560.5ZM893.3 576.7C892.6 576.9 891.4 576.9 890.8 576.7C890.1 576.4 890.6 576.2 892 576.2C893.4 576.2 893.9 576.4 893.3 576.7ZM1156.6 614.5C1158.4 615.8 1158.3 615.9 1154.9 616C1152.9 616 1149.8 616.3 1148.1 616.6C1144.5 617.4 1143.9 615.8 1147.3 614.2C1150.5 612.7 1154.3 612.8 1156.6 614.5Z" fill="url(#paint0_linear)"/>
<path d="M493.2 177.5C493.2 179.1 493.4 179.7 493.7 178.7C493.9 177.8 493.9 176.4 493.7 175.7C493.4 175.1 493.2 175.8 493.2 177.5Z" fill="url(#paint1_linear)"/>
<path d="M466 209.4C466 209.7 466.9 210.4 468 211C469.1 211.6 470 211.8 470 211.6C470 211.3 469.1 210.6 468 210C466.9 209.4 466 209.2 466 209.4Z" fill="url(#paint2_linear)"/>
<path d="M891.8 441.7C892.4 441.9 893.6 441.9 894.3 441.7C894.9 441.4 894.4 441.2 893 441.2C891.6 441.2 891.1 441.4 891.8 441.7Z" fill="url(#paint3_linear)"/>
<path d="M835 505.4C835 505.6 835.7 506.3 836.5 507C837.4 507.7 838 507.8 838 507.2C838 506.7 837.3 506 836.5 505.6C835.7 505.3 835 505.2 835 505.4Z" fill="url(#paint4_linear)"/>
<path d="M964.8 530.7C965.5 531 966.4 530.9 966.7 530.6C967.1 530.3 966.5 530 965.4 530.1C964.3 530.1 964 530.4 964.8 530.7Z" fill="url(#paint5_linear)"/>
<path d="M860.7 536.1C861.1 537.4 861.5 537.9 861.8 537.1C862 536.4 861.7 535.3 861.2 534.8C860.4 534 860.3 534.4 860.7 536.1Z" fill="url(#paint6_linear)"/>
<path d="M862.3 541.3C862.5 541.9 864.3 542.9 866.5 543.7C868.6 544.4 871.8 546.2 873.7 547.6C877 550.1 878.5 549.9 875.3 547.3C872.4 545 861.9 540.2 862.3 541.3Z" fill="url(#paint7_linear)"/>
<path d="M1104.5 544.9C1103.4 545.4 1101.6 546.8 1100.5 548.1L1098.5 550.5L1100.5 548.8C1101.6 547.9 1104.1 546.4 1106 545.6C1109.6 544 1108.1 543.5 1104.5 544.9Z" fill="url(#paint8_linear)"/>
<path d="M812.3 549.5C812.3 551.7 812.5 552.5 812.7 551.2C812.9 550 812.9 548.2 812.7 547.2C812.4 546.3 812.2 547.3 812.3 549.5Z" fill="url(#paint9_linear)"/>
<path d="M965.8 583C965.6 585.1 965.8 586.6 966.2 586.4C966.7 586.1 967 584.8 967 583.5C967 582.1 967.7 581 968.8 580.8C970.2 580.5 970.1 580.3 968.3 579.8C966.4 579.3 966.1 579.7 965.8 583Z" fill="url(#paint10_linear)"/>
<path d="M892.9 599.2C893.6 600.2 895.2 600.9 896.4 600.9C898.4 600.8 898.4 600.7 896.5 600.3C895.4 600 893.8 599.3 893 598.6C891.7 597.6 891.7 597.7 892.9 599.2Z" fill="url(#paint11_linear)"/>
<path d="M1187.6 657.6C1187.2 658.5 1187.2 659.5 1187.5 659.8C1187.7 660.1 1188.2 659.5 1188.6 658.6C1189 657.7 1189 656.7 1188.7 656.4C1188.5 656.1 1188 656.7 1187.6 657.6Z" fill="url(#paint12_linear)"/>
<defs>
<linearGradient id="paint0_linear" x1="639.75" y1="654.206" x2="639.75" y2="0.00756836" gradientUnits="userSpaceOnUse">
<stop offset="0.0208333" stop-color="#D0D316"/>
<stop offset="1" stop-color="#C78B18"/>
</linearGradient>
<linearGradient id="paint1_linear" x1="493.525" y1="179.189" x2="493.525" y2="175.489" gradientUnits="userSpaceOnUse">
<stop offset="0.0208333" stop-color="#D0D316"/>
<stop offset="1" stop-color="#C78B18"/>
</linearGradient>
<linearGradient id="paint2_linear" x1="468" y1="211.675" x2="468" y2="209.325" gradientUnits="userSpaceOnUse">
<stop offset="0.0208333" stop-color="#D0D316"/>
<stop offset="1" stop-color="#C78B18"/>
</linearGradient>
<linearGradient id="paint3_linear" x1="893.018" y1="441.85" x2="893.018" y2="441.2" gradientUnits="userSpaceOnUse">
<stop offset="0.0208333" stop-color="#D0D316"/>
<stop offset="1" stop-color="#C78B18"/>
</linearGradient>
<linearGradient id="paint4_linear" x1="836.5" y1="507.594" x2="836.5" y2="505.296" gradientUnits="userSpaceOnUse">
<stop offset="0.0208333" stop-color="#D0D316"/>
<stop offset="1" stop-color="#C78B18"/>
</linearGradient>
<linearGradient id="paint5_linear" x1="965.586" y1="530.881" x2="965.586" y2="530.08" gradientUnits="userSpaceOnUse">
<stop offset="0.0208333" stop-color="#D0D316"/>
<stop offset="1" stop-color="#C78B18"/>
</linearGradient>
<linearGradient id="paint6_linear" x1="861.167" y1="537.485" x2="861.167" y2="534.404" gradientUnits="userSpaceOnUse">
<stop offset="0.0208333" stop-color="#D0D316"/>
<stop offset="1" stop-color="#C78B18"/>
</linearGradient>
<linearGradient id="paint7_linear" x1="869.68" y1="549.367" x2="869.68" y2="541.139" gradientUnits="userSpaceOnUse">
<stop offset="0.0208333" stop-color="#D0D316"/>
<stop offset="1" stop-color="#C78B18"/>
</linearGradient>
<linearGradient id="paint8_linear" x1="1103.28" y1="550.5" x2="1103.28" y2="544.081" gradientUnits="userSpaceOnUse">
<stop offset="0.0208333" stop-color="#D0D316"/>
<stop offset="1" stop-color="#C78B18"/>
</linearGradient>
<linearGradient id="paint9_linear" x1="812.562" y1="551.826" x2="812.562" y2="546.87" gradientUnits="userSpaceOnUse">
<stop offset="0.0208333" stop-color="#D0D316"/>
<stop offset="1" stop-color="#C78B18"/>
</linearGradient>
<linearGradient id="paint10_linear" x1="967.741" y1="586.418" x2="967.741" y2="579.622" gradientUnits="userSpaceOnUse">
<stop offset="0.0208333" stop-color="#D0D316"/>
<stop offset="1" stop-color="#C78B18"/>
</linearGradient>
<linearGradient id="paint11_linear" x1="894.962" y1="600.9" x2="894.962" y2="597.944" gradientUnits="userSpaceOnUse">
<stop offset="0.0208333" stop-color="#D0D316"/>
<stop offset="1" stop-color="#C78B18"/>
</linearGradient>
<linearGradient id="paint12_linear" x1="1188.1" y1="659.878" x2="1188.1" y2="656.322" gradientUnits="userSpaceOnUse">
<stop offset="0.0208333" stop-color="#D0D316"/>
<stop offset="1" stop-color="#C78B18"/>
</linearGradient>
</defs>
</svg>
